<svg xmlns="http://www.w3.org/2000/svg" viewBox="0 0 95 118.75"><path d="M49.166 43.65V19.625c0-.779-.746-1.411-1.667-1.411s-1.667.631-1.667 1.411V43.65c-1.453.642-2.47 2.091-2.47 3.781s1.017 3.139 2.47 3.781v14.762c0 .52.746.94 1.667.94s1.667-.421 1.667-.94V51.213c1.453-.642 2.47-2.091 2.47-3.781s-1.017-3.14-2.47-3.782zM29.073 13.917c-.148-.256-.592-.278-.99-.048-.399.23-.603.625-.454.882l1.88 3.256c.148.257.592.279.991.048.398-.23.602-.625.453-.882l-1.88-3.256zm36.416 63.076c-.147-.256-.592-.278-.99-.048-.398.23-.602.625-.453.882l1.88 3.256c.148.257.592.279.99.048.398-.23.602-.625.453-.882l-1.88-3.256zM17.173 64.046l-3.257 1.88c-.256.148-.277.592-.048.99.23.399.626.602.882.454l3.256-1.88c.258-.148.279-.592.049-.991-.231-.398-.625-.602-.882-.453zm60.652-33.093l3.257-1.88c.256-.148.277-.592.047-.991-.229-.398-.624-.602-.881-.453l-3.256 1.88c-.256.148-.279.592-.049.99.231.399.626.602.882.454zm-60.653 0c.257.148.651-.055.883-.453.229-.398.208-.843-.049-.99l-3.256-1.88c-.257-.148-.651.055-.882.453-.23.399-.209.843.047.99l3.257 1.88zm60.652 33.093c-.255-.147-.651.056-.882.454-.229.398-.208.842.049.99l3.256 1.879c.258.149.652-.054.882-.453.23-.398.209-.842-.048-.99l-3.257-1.88zM30.498 76.943c-.398-.229-.842-.208-.99.049l-1.88 3.257c-.148.256.055.651.453.881.399.23.843.208.99-.048l1.88-3.256c.15-.258-.054-.652-.453-.883zm34-58.888c.398.23.843.208.99-.048l1.88-3.256c.148-.257-.055-.651-.454-.882-.398-.23-.842-.209-.989.048l-1.88 3.256c-.148.256.054.652.453.882zM12.964 46.667h-3.76c-.297 0-.537.373-.537.833 0 .461.24.834.535.834h3.762c.296 0 .536-.373.537-.834 0-.46-.241-.834-.537-.833zm72.832-.001h-3.76c-.295 0-.537.374-.537.834.001.46.241.833.537.833h3.76c.298 0 .538-.373.537-.833 0-.46-.24-.834-.537-.834zM47.499 81.499c-.46 0-.833.241-.833.538l.001 3.76c-.002.296.373.537.832.536.461 0 .834-.241.834-.537v-3.759c0-.298-.373-.538-.834-.538zm0-67.999c.461 0 .834-.241.834-.537v-3.76c0-.296-.373-.537-.834-.537-.46 0-.834.24-.832.536l-.001 3.76c.001.296.373.539.833.538z"/></svg>