<svg xmlns="http://www.w3.org/2000/svg" xmlns:xlink="http://www.w3.org/1999/xlink" version="1.1" x="0px" y="0px" viewBox="0 0 95 118.75" enable-background="new 0 0 95 95" xml:space="preserve"><g><path d="M49.166,43.65V19.625c0-0.779-0.746-1.411-1.667-1.411s-1.667,0.631-1.667,1.411V43.65c-1.453,0.642-2.47,2.091-2.47,3.781   s1.017,3.139,2.47,3.781v14.762c0,0.52,0.746,0.94,1.667,0.94s1.667-0.421,1.667-0.94V51.213c1.453-0.642,2.47-2.091,2.47-3.781   S50.619,44.292,49.166,43.65z"/><path d="M29.073,13.917c-0.148-0.256-0.592-0.278-0.99-0.048c-0.399,0.23-0.603,0.625-0.454,0.882l1.88,3.256   c0.148,0.257,0.592,0.279,0.991,0.048c0.398-0.23,0.602-0.625,0.453-0.882L29.073,13.917z"/><path d="M65.489,76.993c-0.147-0.256-0.592-0.278-0.99-0.048c-0.398,0.23-0.602,0.625-0.453,0.882l1.88,3.256   c0.148,0.257,0.592,0.279,0.99,0.048c0.398-0.23,0.602-0.625,0.453-0.882L65.489,76.993z"/><path d="M17.173,64.046l-3.257,1.88c-0.256,0.148-0.277,0.592-0.048,0.99c0.23,0.399,0.626,0.602,0.882,0.454l3.256-1.88   c0.258-0.148,0.279-0.592,0.049-0.991C17.824,64.101,17.43,63.897,17.173,64.046z"/><path d="M77.825,30.953l3.257-1.88c0.256-0.148,0.277-0.592,0.047-0.991c-0.229-0.398-0.624-0.602-0.881-0.453l-3.256,1.88   c-0.256,0.148-0.279,0.592-0.049,0.99C77.174,30.898,77.569,31.101,77.825,30.953z"/><path d="M17.172,30.953c0.257,0.148,0.651-0.055,0.883-0.453c0.229-0.398,0.208-0.843-0.049-0.99l-3.256-1.88   c-0.257-0.148-0.651,0.055-0.882,0.453c-0.23,0.399-0.209,0.843,0.047,0.99L17.172,30.953z"/><path d="M77.824,64.046c-0.255-0.147-0.651,0.056-0.882,0.454c-0.229,0.398-0.208,0.842,0.049,0.99l3.256,1.879   c0.258,0.149,0.652-0.054,0.882-0.453c0.23-0.398,0.209-0.842-0.048-0.99L77.824,64.046z"/><path d="M30.498,76.943c-0.398-0.229-0.842-0.208-0.99,0.049l-1.88,3.257c-0.148,0.256,0.055,0.651,0.453,0.881   c0.399,0.23,0.843,0.208,0.99-0.048l1.88-3.256C31.101,77.568,30.897,77.174,30.498,76.943z"/><path d="M64.498,18.055c0.398,0.23,0.843,0.208,0.99-0.048l1.88-3.256c0.148-0.257-0.055-0.651-0.454-0.882   c-0.398-0.23-0.842-0.209-0.989,0.048l-1.88,3.256C63.897,17.429,64.099,17.825,64.498,18.055z"/><path d="M12.964,46.667h-3.76c-0.297,0-0.537,0.373-0.537,0.833c0,0.461,0.24,0.834,0.535,0.834l3.762,0   c0.296,0,0.536-0.373,0.537-0.834C13.501,47.04,13.26,46.666,12.964,46.667z"/><path d="M85.796,46.666l-3.76,0c-0.295,0-0.537,0.374-0.537,0.834c0.001,0.46,0.241,0.833,0.537,0.833l3.76,0   c0.298,0,0.538-0.373,0.537-0.833C86.333,47.04,86.093,46.666,85.796,46.666z"/><path d="M47.499,81.499c-0.46,0-0.833,0.241-0.833,0.538l0.001,3.76c-0.002,0.296,0.373,0.537,0.832,0.536   c0.461,0,0.834-0.241,0.834-0.537v-3.759C48.333,81.739,47.96,81.499,47.499,81.499z"/><path d="M47.499,13.5c0.461,0,0.834-0.241,0.834-0.537v-3.76c0-0.296-0.373-0.537-0.834-0.537c-0.46,0-0.834,0.24-0.832,0.536   l-0.001,3.76C46.667,13.258,47.039,13.501,47.499,13.5z"/></g></svg>
