<svg xmlns="http://www.w3.org/2000/svg" viewBox="0 0 111 111"><path fill-rule="evenodd" clip-rule="evenodd" d="M88.261 74.956a9.493 9.493 0 0 1 1.785 5.544 9.546 9.546 0 0 1-9.546 9.546 9.486 9.486 0 0 1-5.574-1.809C67.887 92.808 59.519 95.5 50.5 95.5c-24.853 0-45-20.146-45-45 0-24.853 20.147-45 45-45 24.854 0 45 20.147 45 45a44.746 44.746 0 0 1-7.239 24.456zm-11.583 6.969a4.072 4.072 0 0 0 1.278 1.757 4.103 4.103 0 0 0 1.966.851c.192.028.381.059.578.059a4.09 4.09 0 0 0 4.091-4.091c0-.198-.032-.388-.059-.578a4.042 4.042 0 0 0-.851-1.964l-.042-.051a4.043 4.043 0 0 0-1.715-1.229 4.082 4.082 0 0 0-1.425-.269 4.09 4.09 0 0 0-4.091 4.091c.001.502.105.979.27 1.424zM50.5 9.591C27.907 9.591 9.591 27.907 9.591 50.5S27.907 91.409 50.5 91.409c7.969 0 15.382-2.312 21.669-6.256a9.503 9.503 0 0 1-1.215-4.653 9.546 9.546 0 0 1 9.546-9.546c1.691 0 3.276.444 4.653 1.215 3.944-6.287 6.256-13.7 6.256-21.669 0-22.593-18.316-40.909-40.909-40.909zm0 69.546c-15.815 0-28.636-12.821-28.636-28.637 0-13.022 8.709-23.968 20.609-27.44.718-3.785 4.033-6.651 8.027-6.651 3.995 0 7.311 2.868 8.027 6.655 11.9 3.471 20.61 14.414 20.61 27.436 0 15.815-12.822 28.637-28.637 28.637zm0-58.637a4.092 4.092 0 1 0 .001 8.183A4.092 4.092 0 0 0 50.5 20.5zm7.708 6.734c-1.104 3.214-4.12 5.538-7.708 5.538-3.587 0-6.602-2.323-7.707-5.536C33.02 30.468 25.955 39.642 25.955 50.5c0 13.557 10.99 24.546 24.545 24.546 13.557 0 24.546-10.989 24.546-24.546 0-10.858-7.064-20.034-16.838-23.266zM50.5 64.137c-7.531 0-13.636-6.106-13.636-13.637 0-7.531 6.105-13.636 13.636-13.636 7.532 0 13.637 6.105 13.637 13.636 0 7.53-6.105 13.637-13.637 13.637zm0-23.182a9.544 9.544 0 0 0-9.545 9.545c0 5.272 4.273 9.546 9.545 9.546a9.546 9.546 0 0 0 9.546-9.546c0-5.272-4.274-9.545-9.546-9.545z"/></svg>