<svg xmlns="http://www.w3.org/2000/svg" xmlns:xlink="http://www.w3.org/1999/xlink" version="1.1" x="0px" y="0px" viewBox="0 0 111 111"  xml:space="preserve"><path fill-rule="evenodd" clip-rule="evenodd" d="M88.261,74.956c1.119,1.563,1.785,3.475,1.785,5.544  c0,5.272-4.273,9.546-9.546,9.546c-2.083,0-4.006-0.676-5.574-1.809C67.887,92.808,59.519,95.5,50.5,95.5c-24.853,0-45-20.146-45-45  c0-24.853,20.147-45,45-45c24.854,0,45,20.147,45,45C95.5,59.522,92.834,67.914,88.261,74.956z M76.678,81.925  c0.253,0.678,0.684,1.266,1.229,1.715c0.018,0.015,0.033,0.028,0.049,0.042c0.556,0.441,1.229,0.745,1.966,0.851  c0.192,0.028,0.381,0.059,0.578,0.059c2.259,0,4.091-1.831,4.091-4.091c0-0.198-0.032-0.388-0.059-0.578  c-0.105-0.739-0.407-1.41-0.851-1.964c-0.014-0.018-0.028-0.033-0.042-0.051c-0.449-0.546-1.035-0.977-1.715-1.229  c-0.444-0.165-0.922-0.269-1.425-0.269c-2.259,0-4.091,1.831-4.091,4.091C76.409,81.003,76.513,81.48,76.678,81.925z M50.5,9.591  C27.907,9.591,9.591,27.907,9.591,50.5c0,22.593,18.316,40.909,40.909,40.909c7.969,0,15.382-2.312,21.669-6.256  c-0.77-1.377-1.215-2.962-1.215-4.653c0-5.272,4.273-9.546,9.546-9.546c1.691,0,3.276,0.444,4.653,1.215  c3.944-6.287,6.256-13.7,6.256-21.669C91.409,27.907,73.093,9.591,50.5,9.591z M50.5,79.137c-15.815,0-28.636-12.821-28.636-28.637  c0-13.022,8.709-23.968,20.609-27.44c0.718-3.785,4.033-6.651,8.027-6.651c3.995,0,7.311,2.868,8.027,6.655  C70.427,26.535,79.137,37.478,79.137,50.5C79.137,66.315,66.315,79.137,50.5,79.137z M50.5,20.5c-2.259,0-4.091,1.832-4.091,4.091  s1.832,4.091,4.091,4.091c2.259,0,4.091-1.832,4.091-4.091S52.759,20.5,50.5,20.5z M58.208,27.234  c-1.104,3.214-4.12,5.538-7.708,5.538c-3.587,0-6.602-2.323-7.707-5.536C33.02,30.468,25.955,39.642,25.955,50.5  c0,13.557,10.99,24.546,24.545,24.546c13.557,0,24.546-10.989,24.546-24.546C75.046,39.642,67.982,30.466,58.208,27.234z   M50.5,64.137c-7.531,0-13.636-6.106-13.636-13.637c0-7.531,6.105-13.636,13.636-13.636c7.532,0,13.637,6.105,13.637,13.636  C64.137,58.03,58.032,64.137,50.5,64.137z M50.5,40.955c-5.272,0-9.545,4.273-9.545,9.545c0,5.272,4.273,9.546,9.545,9.546  c5.272,0,9.546-4.273,9.546-9.546C60.046,45.228,55.772,40.955,50.5,40.955z"/></svg>
