<svg xmlns="http://www.w3.org/2000/svg" xmlns:xlink="http://www.w3.org/1999/xlink" preserveAspectRatio="none" viewBox="0 0 90 112.5"><defs><path d="M24.65 56.45q-.25-.2-.55-.2h-18q-.35 0-.55.2-.25.25-.25.6 0 .3.25.55.2.25.55.25h18q.3 0 .55-.25.25-.25.25-.55 0-.35-.25-.6m7.4 8.6q-.25-.25-.55-.25H6.1q-.35 0-.55.25-.25.2-.25.55 0 .3.25.55.2.25.55.25h25.4q.3 0 .55-.25.25-.25.25-.55 0-.35-.25-.55M5.55 49.1q.2.25.55.25h10.4q.3 0 .55-.25.25-.25.25-.55 0-.3-.25-.55-.25-.25-.55-.25H6.1q-.35 0-.55.25-.25.25-.25.55 0 .3.25.55m0-8.45q.2.2.55.2h7q.3 0 .55-.2.25-.25.25-.6 0-.3-.25-.55-.25-.25-.55-.25h-7q-.35 0-.55.25-.25.25-.25.55 0 .35.25.6m6.75-8.25q.3 0 .55-.25.25-.25.25-.55 0-.35-.25-.55-.25-.25-.55-.25H6.1q-.35 0-.55.25-.25.2-.25.55 0 .3.25.55.2.25.55.25h6.2m67.45-11.15q-5.3-5.3-12.8-5.25-7.55-.05-12.8 5.25l-1.9 1.9-1.9-1.9q-5.25-5.3-12.8-5.25-7.5-.05-12.8 5.25v.05q-5.35 5.3-5.3 12.8-.05 7.55 5.3 12.8L51.7 73.85q.05.1.15.15.15.1.4.1.3 0 .55-.25L79.75 46.9q5.35-5.25 5.3-12.8.05-7.5-5.3-12.8v-.05M78.6 22.4l.05.05q4.85 4.8 4.8 11.65.05 6.9-4.8 11.7l-26.4 26.4-26.4-26.4Q21 41 21.05 34.1q-.05-6.85 4.8-11.65.05 0 .05-.05 4.8-4.85 11.65-4.8 6.9-.05 11.7 4.8l2.45 2.45.15.15q.15.05.4.05.3 0 .6-.2l2.45-2.45h-.05q4.8-4.85 11.7-4.8 6.85-.05 11.65 4.8m-54.05-.6v.05h-.05l.05-.05m1.55.05h.05l-.05.1v-.1m50.1 2.6q-4-4.1-9.75-4.05-5.75-.05-9.8 4.05L52.2 29.4l-4.5-4.95q-4.05-4.1-9.8-4.05-5.75-.05-9.75 4.05h-.05q-4.1 4-4.05 9.8-.05 4.25 2.8 8.15.85 1.4 2.1 2.65l23.15 22.8.1-.05.05.05 23.15-22.8q1.25-1.25 2.15-2.65 2.8-3.9 2.75-8.15.05-5.8-4.05-9.8h-.05z" id="a"/></defs><use xlink:href="#a"/></svg>