<svg xmlns="http://www.w3.org/2000/svg" xmlns:xlink="http://www.w3.org/1999/xlink" version="1.1" preserveAspectRatio="none" x="0px" y="0px" viewBox="0 0 90 112.5"><defs><g id="a"><path fill="#000000" stroke="none" d=" M 24.65 56.45 Q 24.4 56.25 24.1 56.25 L 6.1 56.25 Q 5.75 56.25 5.55 56.45 5.3 56.7 5.3 57.05 5.3 57.35 5.55 57.6 5.75 57.85 6.1 57.85 L 24.1 57.85 Q 24.4 57.85 24.65 57.6 24.9 57.35 24.9 57.05 24.9 56.7 24.65 56.45 M 32.05 65.05 Q 31.8 64.8 31.5 64.8 L 6.1 64.8 Q 5.75 64.8 5.55 65.05 5.3 65.25 5.3 65.6 5.3 65.9 5.55 66.15 5.75 66.4 6.1 66.4 L 31.5 66.4 Q 31.8 66.4 32.05 66.15 32.3 65.9 32.3 65.6 32.3 65.25 32.05 65.05 M 5.55 49.1 Q 5.75 49.35 6.1 49.35 L 16.5 49.35 Q 16.8 49.35 17.05 49.1 17.3 48.85 17.3 48.55 17.3 48.25 17.05 48 16.8 47.75 16.5 47.75 L 6.1 47.75 Q 5.75 47.75 5.55 48 5.3 48.25 5.3 48.55 5.3 48.85 5.55 49.1 M 5.55 40.65 Q 5.75 40.85 6.1 40.85 L 13.1 40.85 Q 13.4 40.85 13.65 40.65 13.9 40.4 13.9 40.05 13.9 39.75 13.65 39.5 13.4 39.25 13.1 39.25 L 6.1 39.25 Q 5.75 39.25 5.55 39.5 5.3 39.75 5.3 40.05 5.3 40.4 5.55 40.65 M 12.3 32.4 Q 12.6 32.4 12.85 32.15 13.1 31.9 13.1 31.6 13.1 31.25 12.85 31.05 12.6 30.8 12.3 30.8 L 6.1 30.8 Q 5.75 30.8 5.55 31.05 5.3 31.25 5.3 31.6 5.3 31.9 5.55 32.15 5.75 32.4 6.1 32.4 L 12.3 32.4 M 79.75 21.25 Q 74.45 15.95 66.95 16 59.4 15.95 54.15 21.25 L 52.25 23.15 50.35 21.25 Q 45.1 15.95 37.55 16 30.05 15.95 24.75 21.25 L 24.75 21.3 Q 19.4 26.6 19.45 34.1 19.4 41.65 24.75 46.9 L 51.7 73.85 Q 51.75 73.95 51.85 74 52 74.1 52.25 74.1 52.55 74.1 52.8 73.85 L 79.75 46.9 Q 85.1 41.65 85.05 34.1 85.1 26.6 79.75 21.3 L 79.75 21.25 M 78.6 22.4 L 78.65 22.45 Q 83.5 27.25 83.45 34.1 83.5 41 78.65 45.8 L 52.25 72.2 25.85 45.8 Q 21 41 21.05 34.1 21 27.25 25.85 22.45 25.9 22.45 25.9 22.4 30.7 17.55 37.55 17.6 44.45 17.55 49.25 22.4 L 51.7 24.85 Q 51.75 24.9 51.85 25 52 25.05 52.25 25.05 52.55 25.05 52.85 24.85 L 55.3 22.4 55.25 22.4 Q 60.05 17.55 66.95 17.6 73.8 17.55 78.6 22.4 M 24.55 21.8 L 24.55 21.85 24.5 21.85 24.55 21.8 M 26.1 21.85 L 26.15 21.85 26.1 21.95 Q 26.1 21.9 26.1 21.85 M 76.2 24.45 Q 72.2 20.35 66.45 20.4 60.7 20.35 56.65 24.45 L 52.2 29.4 47.7 24.45 Q 43.65 20.35 37.9 20.4 32.15 20.35 28.15 24.45 L 28.1 24.45 Q 24 28.45 24.05 34.25 24 38.5 26.85 42.4 27.7 43.8 28.95 45.05 L 52.1 67.85 52.2 67.8 52.25 67.85 75.4 45.05 Q 76.65 43.8 77.55 42.4 80.35 38.5 80.3 34.25 80.35 28.45 76.25 24.45 L 76.2 24.45 Z"/></g></defs><g transform="matrix( 1, 0, 0, 1, 0,0) "><use xlink:href="#a"/></g></svg>