<svg xmlns="http://www.w3.org/2000/svg" xmlns:xlink="http://www.w3.org/1999/xlink" version="1.1" id="Layer_1" x="0px" y="0px" width="70" height="125" viewBox="70 140 125 230" enable-background="new 0 0 540 280" xml:space="preserve" style="background:white; width: 180px; height: 180px;">

  <g xmlns="http://www.w3.org/2000/svg">
    <g>
      <path fill="#45414e" d="M79.269,267.968c0,0-2.35,0.906,0.902-0.901c3.251-1.811,7.229-3.978,13.189-9.76    c5.965-5.779,7.227-7.947,10.299-17.164c3.072-9.214,1.529-17.159,1.529-17.159l-1.084-7.588    c-1.581-6.625,2.375-14.451,7.588-19.514c4.109,2.752,6.788,6.948,10.841,9.755c-2.394,3.384-6.602,4.954-6.503,10.843    c11.146-14.562,27.094,3.459,42.278,4.338c0.823-4.957,0.314-11.244,5.422-11.926c9.682,2.838,2.947,14.199,4.338,20.598    c1.926,8.899,9.972,13.137,17.347,16.259c2.108-24.185,3.456-56.925-7.59-71.547c3.851-10.474-2.712-18.627-9.757-21.683    c-4.945-0.978-6.148,1.81-9.76,2.167c-1.484-10.201-12.848-4.936-17.346-4.336c-5.433,0.715-11.959-0.713-17.345,0    c-22.929,3.045-42.661,23.255-45.534,47.701c-1.8,15.33,0,35.581,0,55.289c0,4.787-1.656,43.256,0,55.291    c8.858,64.32,116.172,60.208,106.241-11.928c-2.783-20.206-12.552-26.896-26.017-43.363l-1.744-1.747l-21.227,18.65l-13.957-9.642    l-8.098-7.063l-4.512-5.065l-1.931-2.836l-1.916-4.337" style="&#10;    /* background: blanchedalmond; */&#10;"/>
      <path fill="none" stroke="#454545" stroke-width="4" stroke-miterlimit="10" d="M79.267,268.583c0,0-2.349,0.901,0.903-0.905    c3.251-1.806,7.229-3.971,13.189-9.758c5.964-5.777,7.227-7.947,10.299-17.16c3.072-9.216,1.529-17.161,1.529-17.161l-1.084-7.591    c-1.581-6.623,2.375-14.45,7.588-19.514c4.109,2.755,6.785,6.95,10.841,9.758c-2.394,3.383-6.602,4.954-6.503,10.84    c11.146-14.559,27.09,3.458,42.278,4.337c0.824-4.955,0.315-11.242,5.42-11.926c9.685,2.842,2.951,14.205,4.34,20.6    c1.927,8.898,9.973,13.141,17.344,16.261c2.113-24.188,3.46-56.925-7.586-71.55c3.851-10.475-2.713-18.627-9.758-21.684    c-4.944-0.977-6.147,1.812-9.76,2.167c-1.483-10.197-12.847-4.933-17.345-4.336c-5.433,0.718-11.959-0.716-17.345,0    c-22.933,3.048-42.662,23.253-45.534,47.701c-1.801,15.33,0,35.58,0,55.291c0,4.788-1.656,43.254,0,55.292    c8.858,64.32,116.172,60.21,106.241-11.929c-2.783-20.205-12.557-26.896-26.018-43.363l-1.744-1.744"/>


      <g>
        <path fill="#454545" d="M104.927,238.84c0.543,1.762,1.065,3.526,1.565,5.296l-0.036-0.102c1.651,2.782,3.853,5.192,6.17,7.456     c2.331,2.261,4.824,4.355,7.389,6.359c2.548,2.029,5.224,3.902,7.893,5.781c2.672,1.864,5.45,3.631,8.188,5.334l-1.611,0.064     c2.641-1.854,5.238-3.848,7.832-5.803c2.582-1.982,5.121-4.019,7.619-6.099c2.474-2.104,4.929-4.239,7.194-6.558     c1.146-1.146,2.22-2.357,3.229-3.625c0.981-1.279,1.91-2.627,2.459-4.184c-0.264,1.633-0.98,3.184-1.812,4.618     c-0.828,1.449-1.816,2.794-2.834,4.106c-2.07,2.599-4.344,5.021-6.732,7.308c-2.373,2.306-4.862,4.479-7.405,6.583     c-2.532,2.126-5.15,4.105-7.839,6.068l-0.768,0.561l-0.844-0.494c-2.906-1.705-5.625-3.586-8.348-5.509     c-2.721-1.917-5.318-4.008-7.859-6.168c-2.519-2.188-4.943-4.504-7.144-7.033c-2.188-2.528-4.216-5.274-5.546-8.391l-0.032-0.073     l-0.004-0.029C105.388,242.494,105.146,240.67,104.927,238.84z"/>
      </g>
      <g>
      </g>
      <path fill="#45414e" stroke="#45414e" stroke-linecap="round" stroke-linejoin="round" d="M147.51,181.362    c2.231,0.639,4.508,2.082,2.167,4.336c2.646,2.752,2.308-2.288,6.507-1.081c0.648,2.597,1.56,4.938,1.084,8.672    c-5.219,3.804-12.914,0.812-15.176-4.338C142.229,184.755,146.49,184.678,147.51,181.362z"/>
    </g>
  </g>
</svg>
