<svg xmlns:dc="http://purl.org/dc/elements/1.1/" xmlns:cc="http://creativecommons.org/ns#" xmlns:rdf="http://www.w3.org/1999/02/22-rdf-syntax-ns#" xmlns:svg="http://www.w3.org/2000/svg" xmlns="http://www.w3.org/2000/svg" xmlns:sodipodi="http://sodipodi.sourceforge.net/DTD/sodipodi-0.dtd" xmlns:inkscape="http://www.inkscape.org/namespaces/inkscape" viewBox="0 0 42 52.50000125" version="1.1" x="0px" y="0px"><g transform="translate(0,-1010.3622)"><path style="color:#000000;font-style:normal;font-variant:normal;font-weight:normal;font-stretch:normal;font-size:medium;line-height:normal;font-family:sans-serif;text-indent:0;text-align:start;text-decoration:none;text-decoration-line:none;text-decoration-style:solid;text-decoration-color:#000000;letter-spacing:normal;word-spacing:normal;text-transform:none;direction:ltr;block-progression:tb;writing-mode:lr-tb;baseline-shift:baseline;text-anchor:start;white-space:normal;clip-rule:nonzero;display:inline;overflow:visible;visibility:visible;opacity:1;isolation:auto;mix-blend-mode:normal;color-interpolation:sRGB;color-interpolation-filters:linearRGB;solid-color:#000000;solid-opacity:1;fill:#000000;fill-opacity:1;fill-rule:nonzero;stroke:none;stroke-width:1;stroke-linecap:round;stroke-linejoin:round;stroke-miterlimit:4;stroke-dasharray:none;stroke-dashoffset:0;stroke-opacity:1;color-rendering:auto;image-rendering:auto;shape-rendering:auto;text-rendering:auto;enable-background:accumulate" d="M 21 0 C 9.407943 0 0 9.408 0 21 C 0 32.5921 9.407943 42 21 42 C 32.592057 42 42 32.5921 42 21 C 42 9.408 32.592057 0 21 0 z M 21 1 C 32.051617 1 41 9.9484 41 21 C 41 32.0516 32.051617 41 21 41 C 9.948383 41 1 32.0516 1 21 C 1 9.9484 9.948383 1 21 1 z M 20 6.0625 C 18.346641 6.0625 17 7.4089 17 9.0625 L 17 12.757812 C 15.165098 14.314812 14 16.7832 14 19.5625 L 14 35.5 A 0.50005 0.50005 0 0 0 14.5 36 L 28.5 36 A 0.50005 0.50005 0 0 0 29 35.5 L 29 19.5625 C 29 16.7835 27.834485 14.315013 26 12.757812 L 26 11.095703 A 0.50005 0.50005 0 0 0 26 11.0625 L 26 9.0625 C 26 7.409 24.653359 6.0625 23 6.0625 L 20 6.0625 z M 20 7.0625 L 23 7.0625 C 24.034536 7.0625 24.859447 7.8227656 24.976562 8.8222656 C 24.447191 8.3542656 23.759975 8.0625 23 8.0625 L 20 8.0625 C 19.240025 8.0625 18.55281 8.3542656 18.023438 8.8222656 C 18.140552 7.8227656 18.965464 7.0625 20 7.0625 z M 20 9.0625 L 23 9.0625 C 24.116659 9.0625 25 9.9457 25 11.0625 L 25 20.646484 C 24.517793 20.100884 23.920545 19.656366 23.220703 19.384766 C 22.629242 19.155266 22.016685 19.053553 21.416016 19.064453 C 20.10881 19.088453 18.862947 19.655947 18 20.623047 L 18 11.095703 A 0.50005 0.50005 0 0 0 18 11.0625 C 18 9.9458 18.883341 9.0625 20 9.0625 z M 17 14.152344 L 17 22.0625 C 17 23.7158 18.346641 25.0625 20 25.0625 L 23 25.0625 C 24.653359 25.0625 26 23.7158 26 22.0625 L 26 14.15625 C 27.223427 15.51225 28 17.4215 28 19.5625 L 28 35 L 15 35 L 15 19.5625 C 15 17.4205 15.775649 15.508644 17 14.152344 z M 21.433594 20.060547 C 21.907308 20.050547 22.390841 20.134506 22.859375 20.316406 C 23.809893 20.685206 24.550278 21.422044 24.90625 22.339844 A 0.50005 0.50005 0 0 0 24.960938 22.449219 C 24.783839 23.375919 23.983787 24.0625 23 24.0625 L 20 24.0625 C 19.002129 24.0625 18.196527 23.355103 18.035156 22.408203 A 0.50005 0.50005 0 0 0 18.123047 22.265625 C 18.681447 20.919625 20.012451 20.085847 21.433594 20.060547 z " transform="translate(0,1010.3622)"/></g><text x="0" y="57.000001" fill="#000000" font-size="5px" font-weight="bold" font-family="'Helvetica Neue', Helvetica, Arial-Unicode, Arial, Sans-serif">Created by Chameleon Design</text><text x="0" y="62.000001" fill="#000000" font-size="5px" font-weight="bold" font-family="'Helvetica Neue', Helvetica, Arial-Unicode, Arial, Sans-serif">from the Noun Project</text></svg>