<svg xmlns="http://www.w3.org/2000/svg" viewBox="0 0 42 52.5"><path style="line-height:normal;text-indent:0;text-align:start;text-decoration-line:none;text-decoration-style:solid;text-decoration-color:#000;text-transform:none;block-progression:tb;white-space:normal;isolation:auto;mix-blend-mode:normal;solid-color:#000;solid-opacity:1" d="M21 0C9.408 0 0 9.408 0 21s9.408 21 21 21 21-9.408 21-21S32.592 0 21 0zm0 1c11.052 0 20 8.948 20 20s-8.948 20-20 20S1 32.052 1 21 9.948 1 21 1zm-1 5.063c-1.653 0-3 1.346-3 3v3.695c-1.835 1.557-3 4.025-3 6.805V35.5a.5.5 0 0 0 .5.5h14a.5.5 0 0 0 .5-.5V19.562c0-2.779-1.166-5.247-3-6.804v-1.662a.5.5 0 0 0 0-.034v-2c0-1.653-1.347-3-3-3h-3zm0 1h3c1.035 0 1.86.76 1.977 1.76A2.973 2.973 0 0 0 23 8.062h-3a2.97 2.97 0 0 0-1.977.76c.118-1 .942-1.76 1.977-1.76zm0 2h3c1.117 0 2 .883 2 2v9.583a4.604 4.604 0 0 0-1.78-1.261 4.743 4.743 0 0 0-1.804-.32A4.704 4.704 0 0 0 18 20.622v-9.527a.5.5 0 0 0 0-.034c0-1.116.883-2 2-2zm-3 5.09v7.91c0 1.653 1.347 3 3 3h3c1.653 0 3-1.347 3-3v-7.907c1.223 1.356 2 3.266 2 5.406V35H15V19.562c0-2.142.776-4.053 2-5.41zm4.434 5.908a3.72 3.72 0 0 1 1.425.255 3.567 3.567 0 0 1 2.047 2.024.5.5 0 0 0 .055.11A1.98 1.98 0 0 1 23 24.062h-3a1.978 1.978 0 0 1-1.965-1.655.5.5 0 0 0 .088-.142c.558-1.346 1.89-2.18 3.31-2.205z" color="#000" font-weight="400" font-family="sans-serif" overflow="visible"/><text y="57" font-size="5" font-weight="bold" font-family="'Helvetica Neue', Helvetica, Arial-Unicode, Arial, Sans-serif">Created by Chameleon Design</text><text y="62" font-size="5" font-weight="bold" font-family="'Helvetica Neue', Helvetica, Arial-Unicode, Arial, Sans-serif">from the Noun Project</text></svg>