<svg xmlns:dc="http://purl.org/dc/elements/1.1/" xmlns:cc="http://creativecommons.org/ns#" xmlns:rdf="http://www.w3.org/1999/02/22-rdf-syntax-ns#" xmlns:svg="http://www.w3.org/2000/svg" xmlns="http://www.w3.org/2000/svg" xmlns:sodipodi="http://sodipodi.sourceforge.net/DTD/sodipodi-0.dtd" xmlns:inkscape="http://www.inkscape.org/namespaces/inkscape" version="1.1" x="0px" y="0px" viewBox="0 0 100 125"><g transform="translate(0,-952.36218)"><path style="text-indent:0;text-transform:none;direction:ltr;block-progression:tb;baseline-shift:baseline;color:#000000;enable-background:accumulate;" d="m 32,966.36215 c -9.93735,0 -18,8.0626 -18,18 l 0,36.00005 c 0,9.9374 8.06265,18 18,18 l 36,0 c 9.93735,0 18,-8.0626 18,-18 l 0,-36.00005 c 0,-9.9374 -8.06265,-18 -18,-18 l -36,0 z m 0,4 36,0 c 7.79054,0 14,6.2095 14,14 l 0,36.00005 c 0,7.7905 -6.20946,14 -14,14 l -36,0 c -7.79054,0 -14,-6.2095 -14,-14 l 0,-36.00005 c 0,-7.7905 6.20946,-14 14,-14 z m 38,6 c -2.2092,0 -4,1.7908 -4,4 0,2.2091 1.7908,4 4,4 2.2091,0 4,-1.7909 4,-4 0,-2.2092 -1.7909,-4 -4,-4 z m -20,9 c -9.36519,0 -17,7.6349 -17,16.99995 0,9.3651 7.63481,17.0001 17,17.0001 9.36519,0 17,-7.635 17,-17.0001 0,-9.36505 -7.63481,-16.99995 -17,-16.99995 z m 0,4 c 7.20341,0 13,5.7967 13,12.99995 0,7.2033 -5.79659,13.0001 -13,13.0001 -7.20341,0 -13,-5.7968 -13,-13.0001 0,-7.20325 5.79659,-12.99995 13,-12.99995 z" fill="#ffffff" fill-opacity="1" stroke="none" marker="none" visibility="visible" display="inline" overflow="visible"/></g></svg>
