<svg xmlns="http://www.w3.org/2000/svg" viewBox="0 0 100 125"><path style="text-indent:0;text-transform:none;block-progression:tb" d="M32 14c-9.937 0-18 8.063-18 18v36c0 9.937 8.063 18 18 18h36c9.937 0 18-8.063 18-18V32c0-9.937-8.063-18-18-18H32zm0 4h36c7.79 0 14 6.21 14 14v36c0 7.79-6.21 14-14 14H32c-7.79 0-14-6.21-14-14V32c0-7.79 6.21-14 14-14zm38 6a4 4 0 1 0 0 8 4 4 0 0 0 0-8zm-20 9c-9.365 0-17 7.635-17 17s7.635 17 17 17 17-7.635 17-17-7.635-17-17-17zm0 4c7.203 0 13 5.797 13 13s-5.797 13-13 13-13-5.797-13-13 5.797-13 13-13z" fill="#fff" overflow="visible" color="#000"/></svg>