<?xml version="1.0" encoding="utf-8"?>
<!-- Generator: Adobe Illustrator 15.0.0, SVG Export Plug-In . SVG Version: 6.00 Build 0)  -->
<!DOCTYPE svg PUBLIC "-//W3C//DTD SVG 1.1//EN" "http://www.w3.org/Graphics/SVG/1.1/DTD/svg11.dtd">
<svg version="1.1" id="Layer_1" xmlns="http://www.w3.org/2000/svg" xmlns:xlink="http://www.w3.org/1999/xlink" x="0px" y="0px"
	 width="640px" height="480px" viewBox="0 0 640 480" enable-background="new 0 0 640 480" xml:space="preserve">
<path fill="#FFFFFF" stroke="#000000" stroke-miterlimit="10" d="M278.709,327.402"/>
<rect x="-64.208" y="9.279" fill="none" width="768.417" height="261.977"/>
<g enable-background="new    ">
	<path fill="#444445" d="M163.091,93.618V13.191h7.826v37.338l35.963-37.338h9.65l-38.152,38.937l38.965,41.49H206.88
		l-35.963-39.077v39.077H163.091z"/>
	<path fill="#444445" d="M223.994,93.618V13.191h22.303c6.059,0,11.595,1.366,16.605,4.096c5.012,2.73,7.519,8.454,7.519,17.168
		c0,8.809-2.511,14.57-7.532,17.28c-5.021,2.712-10.553,4.068-16.594,4.068H231.82v37.815L223.994,93.618L223.994,93.618z
		 M231.822,19.615v29.764h14.125c10.949,0,16.424-4.974,16.424-14.925c0-6.059-1.713-10.046-5.143-11.964
		c-3.429-1.917-7.189-2.875-11.281-2.875H231.822L231.822,19.615z"/>
	<path fill="#444445" d="M272.275,93.618l36.075-82.727l35.964,82.727h-8.024l-11.165-26.201h-33.663l-11.138,26.201H272.275z
		 M294.212,60.993h28.165l-14.026-32.989L294.212,60.993z"/>
	<path fill="#444445" d="M418.093,77.543v8.95c-8.341,6.283-18.112,9.425-29.314,9.425c-5.518,0-10.787-0.986-15.808-2.96
		c-5.022-1.973-9.47-4.833-13.34-8.583c-3.871-3.749-6.896-8.256-9.074-13.522c-2.178-5.264-3.269-11.084-3.269-17.462
		c0-5.648,0.986-11.048,2.961-16.201c1.974-5.151,4.796-9.71,8.472-13.675c3.674-3.965,8.074-7.06,13.198-9.285
		s10.744-3.338,16.86-3.338c5.235,0,10.238,0.702,15.009,2.105c4.77,1.403,9.537,3.918,14.306,7.545v9.089
		c-8.397-8.21-18.093-12.315-29.09-12.315c-4.751,0-9.192,0.977-13.325,2.932c-4.134,1.955-7.706,4.638-10.716,8.051
		c-3.012,3.414-5.33,7.284-6.959,11.613c-1.626,4.33-2.439,8.824-2.439,13.479c0,6.938,1.524,13.152,4.573,18.641
		c3.048,5.489,7.134,9.771,12.259,12.847c5.126,3.077,10.624,4.615,16.494,4.615c5.181,0,10.291-1.027,15.331-3.085
		C409.262,84.351,413.886,81.396,418.093,77.543z"/>
	<path fill="#444445" d="M417.842,93.618l36.075-82.727l35.965,82.727h-8.024l-11.165-26.201h-33.663l-11.138,26.201H417.842z
		 M439.78,60.993h28.165l-14.026-32.989L439.78,60.993z"/>
</g>
<g enable-background="new    ">
	<path fill="#444445" d="M72.823,197.03v-39.414L39.861,197.03H29.397l35.964-41.125l-33.888-39.303h9.65l31.699,37.787v-37.787
		h7.827v37.787l31.699-37.787h9.65l-33.887,39.303l35.963,41.125h-10.464l-32.961-39.414v39.414H72.823z"/>
	<path fill="#444445" d="M140.376,197.03l11.137-24.35l-29.316-56.078h8.865l24.35,47.915l21.713-47.915h7.939l-36.776,80.427
		L140.376,197.03L140.376,197.03z"/>
	<path fill="#444445" d="M199.204,116.602h44.715v80.427h-7.826v-74.003h-29.062v43.314c0,5.012-0.267,9.354-0.801,13.029
		c-0.533,3.674-1.492,6.887-2.875,9.636c-1.385,2.749-3.372,4.89-5.962,6.425c-2.591,1.533-5.887,2.299-9.888,2.299
		c-1.516,0-3.619-0.232-6.312-0.7v-6.396c2.297,0.374,3.744,0.561,4.341,0.561c3.958,0,6.941-1.141,8.949-3.424
		c2.007-2.281,3.296-5.154,3.865-8.615c0.57-3.462,0.854-7.605,0.854-12.432L199.204,116.602L199.204,116.602z"/>
	<path fill="#444445" d="M259.434,197.03v-80.428h43.09v6.425h-35.262v25.752h33.999v6.425h-33.999v35.402h35.262v6.426h-43.09
		V197.03z"/>
	<path fill="#444445" d="M314.362,197.03v-80.428h40.452v6.425h-32.625v26.538h13.213c18.458,0,27.688,7.854,27.688,23.564
		c0,6.676-1.641,11.781-4.925,15.316c-3.281,3.535-7.176,5.85-11.684,6.943c-4.507,1.094-9.312,1.641-14.419,1.641H314.362z
		 M322.189,190.605h11.137c3.066,0,6.189-0.364,9.369-1.095c3.181-0.729,6.031-2.395,8.557-4.998c2.524-2.6,3.787-6.4,3.787-11.396
		c0-4.924-1.16-8.652-3.478-11.189c-2.321-2.536-4.915-4.159-7.786-4.871c-2.87-0.712-5.698-1.068-8.484-1.068h-13.102V190.605z"/>
	<path fill="#444445" d="M373.78,116.602h7.825v63.652l54.927-66.878v83.653h-7.825v-63.651l-54.927,66.877V116.602z"/>
	<path fill="#444445" d="M452.021,197.03v-80.428h7.825v32.963h46.286v-32.963h7.827v80.427h-7.827v-41.042h-46.286v41.042
		L452.021,197.03L452.021,197.03z"/>
	<path fill="#444445" d="M525.8,156.802c0-5.724,1.015-11.166,3.044-16.326c2.029-5.162,4.956-9.711,8.78-13.647
		s8.425-7.009,13.801-9.216c5.376-2.207,11.319-3.311,17.827-3.311c6.453,0,12.354,1.104,17.701,3.311
		c5.349,2.207,9.959,5.287,13.83,9.244c3.871,3.955,6.821,8.5,8.851,13.633c2.027,5.132,3.043,10.572,3.043,16.312
		c0,5.723-1.021,11.155-3.058,16.298c-2.039,5.144-4.988,9.691-8.85,13.648c-3.863,3.955-8.482,7.04-13.859,9.256
		c-5.377,2.217-11.263,3.326-17.659,3.326c-6.472,0-12.404-1.109-17.8-3.326c-5.395-2.216-10-5.287-13.815-9.214
		c-3.815-3.928-6.743-8.481-8.78-13.662C526.819,167.948,525.8,162.506,525.8,156.802z M534.076,156.802
		c0,4.769,0.814,9.309,2.44,13.62c1.627,4.311,4.002,8.174,7.125,11.585c3.124,3.413,6.858,6.083,11.207,8.009
		c4.348,1.926,9.148,2.89,14.405,2.89c5.254,0,10.066-0.959,14.432-2.876c4.367-1.916,8.093-4.562,11.18-7.938
		c3.085-3.375,5.445-7.237,7.082-11.586c1.636-4.348,2.455-8.916,2.455-13.703c0-4.807-0.819-9.384-2.455-13.731
		c-1.637-4.348-3.992-8.201-7.069-11.558c-3.077-3.356-6.809-5.993-11.193-7.911s-9.197-2.875-14.433-2.875
		c-5.256,0-10.066,0.968-14.433,2.904c-4.367,1.936-8.097,4.591-11.192,7.967s-5.462,7.228-7.098,11.559
		C534.894,147.484,534.076,152.034,534.076,156.802z"/>
</g>
<path fill="#FFFFFF" d="M282.709,347.389l26.054,20.83l12.779,7.166c0,0,10.297-2.957,10.815-3.811
	c0.519-0.855,13.521-15.355,14.437-16.189c0.915-0.832,8.75-12.332,8.75-12.332s7.179-14.652,6.987-15.65s1.366-16.35,1.355-17.184
	s3.821-12.5,2.155-14s-3.5-3.666-7.833-4.166s-13.166,0.832-15.833,1.832s-7.688,4.834-10.511,4.334s-1.159-0.166-7.074-4
	s-5.511-3-7.963-5.666c-2.452-2.668-1.452-1.668-3.619-3.5c-2.167-1.834-4.499-4.668-7.833-6.668s-5-3.166-6.667-3
	c-1.667,0.168-6.499-0.998-11.333,1.334c-4.834,2.334-11.334,7.666-11.834,9.166s-1.999-1.332-1.166,4.168
	c0.794,5.244,0.68,8.973,0.668,13.498c-0.001,0.221-0.002,0.443-0.002,0.668c0,4.834,3.334,20.334,3.334,20.334l1.715,2.85
	L282.709,347.389z"/>
<line fill="#FFFFFF" x1="396.666" y1="331.773" x2="353.332" y2="335.26"/>
<path fill="#FFFFFF" d="M356.57,331.773l2.023-6.461c0,0,12.412,11.588,12.116,12.613c-0.296,1.027-5.241,51.334-5.241,51.334
	l-17.779-34.166l8.516-23.32"/>
<g>
	<g>
		<path fill="#C1B49A" d="M253.932,366.729c0,0-2.82,1.086,1.082-1.082c3.902-2.174,8.676-4.773,15.827-11.713
			c7.158-6.934,8.673-9.537,12.359-20.596c3.687-11.057,1.834-20.59,1.834-20.59l-1.301-9.107
			c-1.896-7.949,2.851-17.34,9.106-23.416c4.931,3.303,8.146,8.338,13.009,11.707c-2.873,4.061-7.923,5.943-7.804,13.01
			c13.375-17.473,32.513,4.152,50.733,5.207c0.988-5.949,0.377-13.494,6.507-14.312c11.618,3.406,3.536,17.039,5.205,24.719
			c2.312,10.678,11.967,15.764,20.816,19.51c2.53-29.021,4.147-68.309-9.107-85.855c4.621-12.568-3.255-22.352-11.709-26.02
			c-5.934-1.174-7.377,2.172-11.712,2.601c-1.78-12.241-15.417-5.923-20.814-5.203c-6.521,0.858-14.352-0.856-20.814,0
			c-27.515,3.653-51.193,27.906-54.641,57.242c-2.16,18.395,0,42.697,0,66.346c0,5.744-1.987,51.906,0,66.35
			c10.63,77.184,139.406,72.25,127.489-14.314c-3.34-24.246-15.062-32.275-31.221-52.035l-2.093-2.096l-25.473,22.379l-16.748-11.57
			l-9.718-8.475l-5.414-6.08l-2.317-3.4l-2.299-5.205"/>
		<path fill="none" stroke="#444444" stroke-width="4" stroke-miterlimit="10" d="M253.93,367.467c0,0-2.819,1.082,1.084-1.088
			c3.9-2.166,8.674-4.764,15.826-11.709c7.156-6.934,8.672-9.535,12.358-20.592c3.687-11.059,1.835-20.594,1.835-20.594
			l-1.301-9.109c-1.897-7.947,2.851-17.34,9.105-23.416c4.931,3.307,8.143,8.34,13.01,11.709c-2.873,4.061-7.923,5.945-7.804,13.008
			c13.375-17.471,32.508,4.15,50.733,5.205c0.989-5.945,0.378-13.49,6.504-14.311c11.622,3.41,3.541,17.045,5.208,24.719
			c2.312,10.678,11.968,15.77,20.812,19.514c2.536-29.025,4.152-68.311-9.103-85.859c4.621-12.57-3.256-22.352-11.71-26.021
			c-5.933-1.173-7.376,2.175-11.712,2.601c-1.779-12.236-15.416-5.92-20.814-5.203c-6.52,0.861-14.351-0.859-20.813,0
			c-27.52,3.657-51.194,27.903-54.641,57.241c-2.161,18.396,0,42.695,0,66.35c0,5.746-1.987,51.904,0,66.35
			c10.63,77.184,139.406,72.252,127.489-14.312c-3.34-24.248-15.068-32.277-31.222-52.037l-2.093-2.094"/>
		<path fill="#FFFFFF" stroke="#FFFFFF" stroke-linecap="round" stroke-linejoin="round" d="M372.242,244.592
			c-2.85,1.48-5.318,3.357-10.406,2.6c-1.118-4.152,2.043-4.023,2.604-6.506c-3.305-2.329-6.352,1.441-9.105-2.604
			C358.129,224.602,374.403,229.38,372.242,244.592z"/>
		<g>
			<path fill="#444444" d="M291.007,346.105c4.211,9.262,7.22,19.033,9.702,28.902c1.263,4.934,2.267,9.93,3.209,14.936
				c0.466,2.506,0.85,5.025,1.229,7.543c0.36,2.529,0.75,5.006,0.965,7.658c0.351,5.219,0,10.482-1.085,15.588
				c-1.122,5.094-2.875,10.035-5.26,14.629c-2.342,4.615-5.262,8.896-8.55,12.828c-3.33,3.893-6.978,7.525-11.126,10.477
				c3.622-3.557,6.852-7.447,9.726-11.555c2.889-4.098,5.386-8.441,7.416-12.967c4.05-9.043,6.068-18.949,5.29-28.74
				c-0.165-2.398-0.528-4.939-0.855-7.426c-0.334-2.496-0.73-4.98-1.103-7.475c-0.74-4.984-1.66-9.939-2.588-14.896
				C296.027,365.717,293.812,355.861,291.007,346.105z"/>
		</g>
		<g>
			<path fill="#444444" d="M284.722,331.773c0.651,2.113,1.277,4.232,1.878,6.355l-0.043-0.121c1.98,3.338,4.623,6.23,7.403,8.947
				c2.798,2.713,5.789,5.227,8.867,7.631c3.058,2.436,6.269,4.684,9.472,6.938c3.206,2.236,6.54,4.357,9.825,6.4l-1.933,0.078
				c3.169-2.225,6.285-4.619,9.398-6.965c3.098-2.379,6.145-4.82,9.143-7.316c2.969-2.527,5.914-5.088,8.633-7.869
				c1.375-1.377,2.664-2.83,3.875-4.35c1.177-1.537,2.292-3.154,2.95-5.021c-0.316,1.959-1.176,3.82-2.174,5.541
				c-0.994,1.74-2.18,3.354-3.401,4.928c-2.484,3.119-5.213,6.025-8.078,8.77c-2.848,2.768-5.835,5.375-8.886,7.9
				c-3.039,2.551-6.181,4.928-9.407,7.283l-0.922,0.672l-1.013-0.594c-3.487-2.047-6.75-4.303-10.018-6.611
				c-3.265-2.299-6.382-4.809-9.431-7.4c-3.022-2.625-5.932-5.404-8.572-8.439c-2.626-3.035-5.06-6.33-6.655-10.07l-0.039-0.088
				l-0.005-0.033C285.274,336.158,284.984,333.971,284.722,331.773z"/>
		</g>
		<g>
			<path fill="#444444" d="M284.227,307.836c3.948,1.473,7.342,4.33,9.958,7.707c1.327,1.689,2.403,3.57,3.321,5.516
				c0.458,0.957,0.837,2.018,1.178,2.979c0.348,1.031,0.657,2.057,0.918,3.102c0.475,2.1,0.772,4.256,0.792,6.418
				c0.01,2.152-0.261,4.33-0.567,6.324c-0.062,0.492-0.109,0.975-0.088,1.375c0.017,0.191,0.042,0.371,0.091,0.488
				c0.028,0.057,0.047,0.115,0.083,0.16l0.023,0.035l0.006,0.012c-0.087-0.076-0.015-0.014-0.029-0.025l0.035,0.033l0.137,0.125
				c0.153,0.139,0.635,0.363,1.069,0.449c0.453,0.109,0.944,0.168,1.44,0.205c2.005,0.154,4.09-0.025,6.169-0.215
				c-1.975,0.711-4.017,1.213-6.173,1.393c-0.542,0.033-1.093,0.035-1.665-0.025c-0.588-0.08-1.13-0.145-1.841-0.592l-0.165-0.123
				l-0.04-0.027c-0.026-0.025,0.032,0.031-0.064-0.057l-0.026-0.025l-0.104-0.109c-0.146-0.143-0.25-0.32-0.347-0.486
				c-0.187-0.35-0.26-0.688-0.318-1.01c-0.091-0.633-0.074-1.193-0.059-1.734c0.097-2.143,0.299-4.105,0.162-6.115
				c-0.084-1.994-0.375-3.975-0.854-5.92c-0.225-0.977-0.5-1.949-0.797-2.889c-0.329-1.008-0.66-1.9-1.044-2.844
				c-0.741-1.867-1.7-3.635-2.769-5.344C290.467,313.248,287.685,310.18,284.227,307.836z"/>
		</g>
		<path fill="#FFFFFF" stroke="#FFFFFF" stroke-linecap="round" stroke-linejoin="round" d="M335.821,262.801
			c2.677,0.768,5.409,2.498,2.601,5.203c3.175,3.303,2.77-2.746,7.808-1.297c0.778,3.117,1.872,5.926,1.301,10.406
			c-6.263,4.564-15.496,0.975-18.211-5.205C329.483,266.873,334.597,266.779,335.821,262.801z"/>
		<path fill="#FFFFFF" stroke="#FFFFFF" stroke-linecap="round" stroke-linejoin="round" d="M369.646,254.996
			c6.362,12.305-10.984,23.467-15.615,10.406c1.066-2.744,6.855-3.564,9.105-1.301c3.553-3.525-3.367-3.238-2.597-7.807
			C362.211,254.5,366.184,255.006,369.646,254.996z"/>
		<path fill="#FFFFFF" stroke="#FFFFFF" stroke-linecap="round" stroke-linejoin="round" d="M355.334,245.889
			c0.86,7.365-0.939,12.072-5.2,14.314C326.961,262.373,341.869,230.653,355.334,245.889z"/>
		<path fill="#FFFFFF" stroke="#FFFFFF" stroke-linecap="round" stroke-linejoin="round" d="M321.51,240.686
			c2.837,2.365,9.158,1.244,10.41,5.203c0.385,3.42-1.799,4.264-5.204,3.904c-1.066,4.969,6.268,1.533,5.204,6.504
			c-4.113,0.662-5.716,3.826-10.41,3.904C316.629,256.746,315.863,243.883,321.51,240.686z"/>
		<path fill="#FFFFFF" stroke="#FFFFFF" stroke-linecap="round" stroke-linejoin="round" d="M348.829,226.375
			c0,3.033,0,6.074,0,9.107c-4.503,1.025-5.489-1.445-7.808-2.604c-3.536-0.938,0.939,6.141-2.6,5.203
			c-3.146,2.772-5.748-2.9-7.807-5.203C331.836,225.502,342.651,221.089,348.829,226.375z"/>
		<path opacity="0.21" fill="#E5C0DB" enable-background="new    " d="M323.46,326.57c0,0,1.79-5.816,4.721-7.967
			c2.926-2.156,3.575-1.426,6.99-1.631c3.416-0.201,3.404-0.164,4.067,0.818c0.658,0.979,1.95-1.1,0,2.273
			c-1.952,3.379-6.377,3.826-9.112,5.207c-2.737,1.385-4.55,2.275-5.036,2.111C324.6,327.219,323.46,326.57,323.46,326.57z"/>
	</g>
	<path fill="#E5C0DB" d="M323.91,346.764c0.846,5.617-2.25,7.295-3.9,10.408c-6.104,1.326-7.406-2.15-10.407-3.906
		C313.193,349.922,316.807,346.592,323.91,346.764z"/>
	<path fill="#C1B49A" d="M332.357,311.637c-6.658,4.359-12.108,16.264-24.713,10.406c0.416-3.057,2.054-4.877,1.299-9.104
		c1.938,1.104,1.888,4.186,2.601,6.504C321.121,319.691,323.748,308.281,332.357,311.637z"/>
</g>
</svg>
