<?xml version="1.0" encoding="utf-8"?>
<!-- Generator: Adobe Illustrator 15.0.0, SVG Export Plug-In . SVG Version: 6.00 Build 0)  -->
<!DOCTYPE svg PUBLIC "-//W3C//DTD SVG 1.1//EN" "http://www.w3.org/Graphics/SVG/1.1/DTD/svg11.dtd">
<svg version="1.1" id="Layer_1" xmlns="http://www.w3.org/2000/svg" xmlns:xlink="http://www.w3.org/1999/xlink" x="0px" y="0px"
	 width="320" height="140" viewBox="110 135 450 230" enable-background="new 0 0 540 280" xml:space="preserve">
<rect x="-0.848" y="85.884" fill="none" width="640.347" height="218.314"/>
<g enable-background="new    ">
	<path fill="#FFFFFF" d="M211.48,206.01v-51.066h4.97v23.707l22.835-23.707h6.127l-24.224,24.723l24.741,26.344h-6.644
		l-22.835-24.812v24.812H211.48z"/>
	<path fill="#FFFFFF" d="M251.173,206.01v-51.066h14.161c3.847,0,7.362,0.866,10.544,2.601c3.183,1.733,4.774,5.367,4.774,10.9
		c0,5.593-1.594,9.251-4.783,10.973s-6.7,2.582-10.536,2.582h-9.191v24.011H251.173z M256.143,159.022v18.898h8.969
		c6.952,0,10.428-3.159,10.428-9.477c0-3.848-1.088-6.379-3.265-7.597c-2.177-1.217-4.565-1.825-7.163-1.825H256.143z"/>
	<path fill="#FFFFFF" d="M282.85,206.01l22.906-52.527l22.834,52.527h-5.094l-7.089-16.637h-21.375l-7.071,16.637H282.85z
		 M296.778,185.295h17.883l-8.906-20.947L296.778,185.295z"/>
	<path fill="#FFFFFF" d="M376.459,195.804v5.682c-5.297,3.99-11.501,5.985-18.613,5.985c-3.504,0-6.85-0.627-10.037-1.88
		c-3.189-1.252-6.012-3.069-8.471-5.45c-2.457-2.381-4.379-5.242-5.762-8.585s-2.074-7.039-2.074-11.088
		c0-3.586,0.625-7.015,1.879-10.286c1.252-3.271,3.045-6.166,5.379-8.684c2.333-2.518,5.127-4.482,8.381-5.896
		c3.253-1.413,6.821-2.12,10.705-2.12c3.324,0,6.5,0.445,9.529,1.336c3.027,0.891,6.056,2.488,9.084,4.791v5.771
		c-5.332-5.213-11.489-7.819-18.471-7.819c-3.018,0-5.838,0.62-8.461,1.861c-2.625,1.241-4.893,2.945-6.805,5.112
		s-3.385,4.625-4.417,7.374c-1.033,2.749-1.55,5.602-1.55,8.559c0,4.405,0.968,8.351,2.903,11.836s4.53,6.204,7.784,8.157
		c3.253,1.954,6.744,2.931,10.473,2.931c3.289,0,6.534-0.653,9.734-1.96C370.851,200.126,373.787,198.25,376.459,195.804z"/>
	<path fill="#FFFFFF" d="M377.32,206.01l22.906-52.527l22.835,52.527h-5.095l-7.088-16.637h-21.375l-7.071,16.637H377.32z
		 M391.25,185.295h17.883l-8.906-20.947L391.25,185.295z"/>
</g>
<g enable-background="new    ">
	<path fill="#FFFFFF" d="M233.443,271.67v-25.025l-20.929,25.025h-6.644l22.834-26.112l-21.517-24.954h6.127l20.127,23.992v-23.992
		h4.969v23.992l20.127-23.992h6.127l-21.517,24.954l22.834,26.112h-6.644l-20.929-25.025v25.025H233.443z"/>
	<path fill="#FFFFFF" d="M277.356,271.67l7.071-15.461l-18.613-35.605h5.628l15.461,30.423l13.786-30.423h5.041l-23.352,51.066
		H277.356z"/>
	<path fill="#FFFFFF" d="M315.73,220.604h28.393v51.066h-4.97v-46.987H320.7v27.501c0,3.183-0.169,5.94-0.508,8.273
		c-0.338,2.334-0.947,4.373-1.826,6.119c-0.879,1.745-2.141,3.104-3.785,4.078c-1.645,0.975-3.737,1.461-6.278,1.461
		c-0.962,0-2.298-0.148-4.008-0.445v-4.062c1.458,0.238,2.377,0.356,2.757,0.356c2.513,0,4.407-0.725,5.682-2.174
		c1.274-1.449,2.092-3.272,2.454-5.47c0.362-2.198,0.542-4.829,0.542-7.895V220.604z"/>
	<path fill="#FFFFFF" d="M354.994,271.67v-51.066h27.359v4.079h-22.389v16.351h21.588v4.079h-21.588v22.479h22.389v4.079H354.994z"
		/>
	<path fill="#FFFFFF" d="M390.893,271.67v-51.066h25.686v4.079h-20.715v16.85h8.389c11.721,0,17.58,4.987,17.58,14.962
		c0,4.239-1.041,7.481-3.125,9.726s-4.558,3.714-7.419,4.408c-2.862,0.694-5.913,1.042-9.155,1.042H390.893z M395.863,267.591h7.07
		c1.947,0,3.931-0.231,5.949-0.695c2.02-0.463,3.83-1.521,5.434-3.173c1.603-1.651,2.404-4.064,2.404-7.237
		c0-3.126-0.736-5.493-2.209-7.104s-3.12-2.642-4.943-3.094c-1.822-0.451-3.618-0.677-5.388-0.677h-8.317V267.591z"/>
	<path fill="#FFFFFF" d="M429.641,220.604h4.971v40.415l34.875-42.464v53.115h-4.969v-40.415l-34.877,42.464V220.604z"/>
	<path fill="#FFFFFF" d="M480.342,271.67v-51.066h4.969v20.929h29.391v-20.929h4.969v51.066h-4.969v-26.059h-29.391v26.059H480.342z
		"/>
	<path fill="#FFFFFF" d="M528.209,246.128c0-3.634,0.645-7.09,1.934-10.367c1.287-3.277,3.146-6.165,5.574-8.665
		s5.35-4.45,8.764-5.852c3.414-1.4,7.188-2.102,11.32-2.102c4.096,0,7.842,0.701,11.238,2.102c3.396,1.401,6.324,3.357,8.781,5.869
		c2.459,2.512,4.332,5.397,5.619,8.657c1.289,3.259,1.934,6.712,1.934,10.357c0,3.634-0.648,7.083-1.941,10.349
		c-1.295,3.266-3.168,6.154-5.619,8.665c-2.453,2.512-5.387,4.471-8.801,5.878s-7.15,2.111-11.211,2.111
		c-4.109,0-7.877-0.704-11.303-2.111s-6.35-3.357-8.771-5.851c-2.424-2.494-4.281-5.386-5.576-8.675S528.209,249.75,528.209,246.128
		z M533.463,246.128c0,3.027,0.518,5.91,1.551,8.647s2.541,5.189,4.523,7.356c1.984,2.167,4.355,3.862,7.117,5.085
		c2.76,1.224,5.809,1.835,9.146,1.835c3.336,0,6.391-0.608,9.164-1.826c2.771-1.217,5.139-2.896,7.098-5.04s3.457-4.596,4.498-7.356
		c1.037-2.761,1.559-5.661,1.559-8.701c0-3.052-0.521-5.958-1.559-8.719c-1.041-2.762-2.537-5.207-4.49-7.339
		s-4.322-3.806-7.105-5.023c-2.785-1.217-5.84-1.825-9.164-1.825c-3.338,0-6.393,0.614-9.166,1.844
		c-2.771,1.229-5.141,2.915-7.105,5.059c-1.967,2.144-3.469,4.589-4.508,7.338S533.463,243.1,533.463,246.128z"/>
</g>
<g>
	<g>
		<path fill="#FFFFFF" d="M79.269,267.968c0,0-2.35,0.906,0.902-0.901c3.251-1.811,7.229-3.978,13.189-9.76
			c5.965-5.779,7.227-7.947,10.299-17.164c3.072-9.214,1.529-17.159,1.529-17.159l-1.084-7.588
			c-1.581-6.625,2.375-14.451,7.588-19.514c4.109,2.752,6.788,6.948,10.841,9.755c-2.394,3.384-6.602,4.954-6.503,10.843
			c11.146-14.562,27.094,3.459,42.278,4.338c0.823-4.957,0.314-11.244,5.422-11.926c9.682,2.838,2.947,14.199,4.338,20.598
			c1.926,8.899,9.972,13.137,17.347,16.259c2.108-24.185,3.456-56.925-7.59-71.547c3.851-10.474-2.712-18.627-9.757-21.683
			c-4.945-0.978-6.148,1.81-9.76,2.167c-1.484-10.201-12.848-4.936-17.346-4.336c-5.433,0.715-11.959-0.713-17.345,0
			c-22.929,3.045-42.661,23.255-45.534,47.701c-1.8,15.33,0,35.581,0,55.289c0,4.787-1.656,43.256,0,55.291
			c8.858,64.32,116.172,60.208,106.241-11.928c-2.783-20.206-12.552-26.896-26.017-43.363l-1.744-1.747l-21.227,18.65l-13.957-9.642
			l-8.098-7.063l-4.512-5.065l-1.931-2.836l-1.916-4.337"/>
		<path fill="none" stroke="#454545" stroke-width="4" stroke-miterlimit="10" d="M79.267,268.583c0,0-2.349,0.901,0.903-0.905
			c3.251-1.806,7.229-3.971,13.189-9.758c5.964-5.777,7.227-7.947,10.299-17.16c3.072-9.216,1.529-17.161,1.529-17.161l-1.084-7.591
			c-1.581-6.623,2.375-14.45,7.588-19.514c4.109,2.755,6.785,6.95,10.841,9.758c-2.394,3.383-6.602,4.954-6.503,10.84
			c11.146-14.559,27.09,3.458,42.278,4.337c0.824-4.955,0.315-11.242,5.42-11.926c9.685,2.842,2.951,14.205,4.34,20.6
			c1.927,8.898,9.973,13.141,17.344,16.261c2.113-24.188,3.46-56.925-7.586-71.55c3.851-10.475-2.713-18.627-9.758-21.684
			c-4.944-0.977-6.147,1.812-9.76,2.167c-1.483-10.197-12.847-4.933-17.345-4.336c-5.433,0.718-11.959-0.716-17.345,0
			c-22.933,3.048-42.662,23.253-45.534,47.701c-1.801,15.33,0,35.58,0,55.291c0,4.788-1.656,43.254,0,55.292
			c8.858,64.32,116.172,60.21,106.241-11.929c-2.783-20.205-12.557-26.896-26.018-43.363l-1.744-1.744"/>
		<path fill="#FFFFFF" stroke="#FFFFFF" stroke-linecap="round" stroke-linejoin="round" d="M177.861,166.187
			c-2.375,1.234-4.432,2.798-8.672,2.167c-0.932-3.46,1.703-3.352,2.17-5.422c-2.754-1.94-5.293,1.201-7.588-2.169
			C166.1,149.53,179.662,153.512,177.861,166.187z"/>
		<g>
			<path fill="#454545" d="M110.165,250.783c3.509,7.717,6.016,15.861,8.085,24.085c1.052,4.11,1.889,8.274,2.674,12.446
				c0.388,2.088,0.708,4.188,1.024,6.285c0.3,2.108,0.625,4.172,0.804,6.383c0.292,4.349,0,8.734-0.904,12.988
				c-0.935,4.245-2.396,8.363-4.383,12.191c-1.952,3.847-4.385,7.415-7.125,10.691c-2.775,3.242-5.815,6.271-9.272,8.729
				c3.019-2.963,5.71-6.206,8.105-9.629c2.407-3.414,4.488-7.035,6.18-10.806c3.375-7.536,5.057-15.791,4.408-23.949
				c-0.137-2-0.44-4.117-0.713-6.189c-0.278-2.08-0.608-4.15-0.918-6.229c-0.617-4.153-1.384-8.282-2.157-12.413
				C114.349,267.126,112.502,258.912,110.165,250.783z"/>
		</g>
		<g>
			<path fill="#454545" d="M104.927,238.84c0.543,1.762,1.065,3.526,1.565,5.296l-0.036-0.102c1.651,2.782,3.853,5.192,6.17,7.456
				c2.331,2.261,4.824,4.355,7.389,6.359c2.548,2.029,5.224,3.902,7.893,5.781c2.672,1.864,5.45,3.631,8.188,5.334l-1.611,0.064
				c2.641-1.854,5.238-3.848,7.832-5.803c2.582-1.982,5.121-4.019,7.619-6.099c2.474-2.104,4.929-4.239,7.194-6.558
				c1.146-1.146,2.22-2.357,3.229-3.625c0.981-1.279,1.91-2.627,2.459-4.184c-0.264,1.633-0.98,3.184-1.812,4.618
				c-0.828,1.449-1.816,2.794-2.834,4.106c-2.07,2.599-4.344,5.021-6.732,7.308c-2.373,2.306-4.862,4.479-7.405,6.583
				c-2.532,2.126-5.15,4.105-7.839,6.068l-0.768,0.561l-0.844-0.494c-2.906-1.705-5.625-3.586-8.348-5.509
				c-2.721-1.917-5.318-4.008-7.859-6.168c-2.519-2.188-4.943-4.504-7.144-7.033c-2.188-2.528-4.216-5.274-5.546-8.391l-0.032-0.073
				l-0.004-0.029C105.388,242.494,105.146,240.67,104.927,238.84z"/>
		</g>
		<g>
			<path fill="#FFFFFF" d="M104.515,218.892c3.29,1.226,6.118,3.608,8.298,6.422c1.106,1.408,2.003,2.975,2.768,4.596
				c0.381,0.798,0.697,1.682,0.981,2.482c0.29,0.86,0.548,1.715,0.765,2.585c0.396,1.749,0.644,3.546,0.66,5.348
				c0.008,1.794-0.217,3.608-0.473,5.271c-0.052,0.409-0.091,0.812-0.073,1.146c0.014,0.158,0.035,0.309,0.076,0.406
				c0.023,0.047,0.039,0.097,0.069,0.133l0.019,0.029l0.005,0.01c-0.072-0.063-0.012-0.01-0.024-0.021l0.029,0.028l0.114,0.104
				c0.128,0.115,0.529,0.303,0.891,0.373c0.378,0.092,0.787,0.141,1.201,0.172c1.67,0.129,3.408-0.021,5.14-0.179
				c-1.645,0.593-3.347,1.011-5.144,1.16c-0.451,0.028-0.91,0.028-1.387-0.021c-0.49-0.066-0.942-0.121-1.534-0.494l-0.138-0.102
				l-0.033-0.023c-0.022-0.021,0.027,0.027-0.054-0.047l-0.022-0.021l-0.087-0.091c-0.122-0.119-0.208-0.267-0.289-0.406
				c-0.155-0.291-0.216-0.573-0.265-0.841c-0.076-0.527-0.062-0.994-0.049-1.445c0.081-1.785,0.249-3.422,0.135-5.096
				c-0.07-1.662-0.312-3.312-0.711-4.934c-0.187-0.813-0.417-1.623-0.664-2.407c-0.274-0.839-0.55-1.583-0.87-2.37
				c-0.618-1.555-1.417-3.029-2.307-4.452C109.715,223.401,107.396,220.844,104.515,218.892z"/>
		</g>
		<path fill="#FFFFFF" stroke="#FFFFFF" stroke-linecap="round" stroke-linejoin="round" d="M147.51,181.362
			c2.231,0.639,4.508,2.082,2.167,4.336c2.646,2.752,2.308-2.288,6.507-1.081c0.648,2.597,1.56,4.938,1.084,8.672
			c-5.219,3.804-12.914,0.812-15.176-4.338C142.229,184.755,146.49,184.678,147.51,181.362z"/>
		<path fill="#FFFFFF" stroke="#FFFFFF" stroke-linecap="round" stroke-linejoin="round" d="M175.698,174.858
			c5.302,10.254-9.154,19.556-13.013,8.672c0.889-2.287,5.713-2.971,7.588-1.084c2.961-2.938-2.806-2.699-2.164-6.506
			C169.502,174.444,172.812,174.866,175.698,174.858z"/>
		<path fill="#FFFFFF" stroke="#FFFFFF" stroke-linecap="round" stroke-linejoin="round" d="M163.771,167.269
			c0.717,6.137-0.783,10.06-4.334,11.928C140.127,181.005,152.55,154.572,163.771,167.269z"/>
		<path fill="#FFFFFF" stroke="#FFFFFF" stroke-linecap="round" stroke-linejoin="round" d="M135.584,162.932
			c2.364,1.971,7.632,1.038,8.675,4.336c0.321,2.851-1.499,3.553-4.337,3.254c-0.888,4.141,5.223,1.278,4.337,5.42
			c-3.428,0.552-4.763,3.188-8.675,3.254C131.517,176.317,130.879,165.597,135.584,162.932z"/>
		<path fill="#FFFFFF" stroke="#FFFFFF" stroke-linecap="round" stroke-linejoin="round" d="M158.35,151.007
			c0,2.527,0,5.062,0,7.589c-3.752,0.855-4.574-1.204-6.506-2.169c-2.947-0.781,0.783,5.117-2.167,4.336
			c-2.622,2.31-4.79-2.417-6.505-4.336C144.189,150.28,153.202,146.603,158.35,151.007z"/>
		<path opacity="0.21" fill="#E4C0DB" enable-background="new    " d="M137.209,234.503c0,0,1.492-4.846,3.934-6.639
			c2.438-1.797,2.979-1.188,5.825-1.358c2.847-0.168,2.837-0.138,3.39,0.681c0.548,0.815,1.625-0.916,0,1.895
			c-1.627,2.816-5.314,3.188-7.594,4.339c-2.281,1.154-3.791,1.896-4.197,1.759C138.159,235.044,137.209,234.503,137.209,234.503z"
			/>
	</g>
	<path fill="#E4C0DB" d="M137.584,251.331c0.705,4.681-1.875,6.079-3.25,8.673c-5.086,1.105-6.172-1.792-8.673-3.255
		C128.654,253.963,131.665,251.188,137.584,251.331z"/>
	<path fill="#FFFFFF" d="M144.624,222.058c-5.549,3.633-10.091,13.553-20.594,8.672c0.346-2.547,1.711-4.063,1.082-7.586
		c1.615,0.92,1.573,3.488,2.167,5.42C135.26,228.771,137.449,219.262,144.624,222.058z"/>
</g>
</svg>
