<?xml version="1.0" encoding="utf-8"?>
<!-- Generator: Adobe Illustrator 15.0.0, SVG Export Plug-In . SVG Version: 6.00 Build 0)  -->
<!DOCTYPE svg PUBLIC "-//W3C//DTD SVG 1.1//EN" "http://www.w3.org/Graphics/SVG/1.1/DTD/svg11.dtd">
<svg version="1.1" id="Layer_1" xmlns="http://www.w3.org/2000/svg" xmlns:xlink="http://www.w3.org/1999/xlink" x="0px" y="0px"
	 width="640px" height="300px" viewBox="0 0 640 300" enable-background="new 0 0 640 300" xml:space="preserve">
<path fill="none" d="M2.417,87.802L2.417,87.802L2.417,87.802z"/>
<text transform="matrix(1 0 0 1 156.1914 80.6729)" fill="#FFFFFF" font-family="'FuturisCyrillic'" font-size="86.0215">КРАСА</text>
<text transform="matrix(1 0 0 1 156.1914 158.0918)" fill="#FFFFFF" font-family="'FuturisCyrillic'" font-size="86.0215">ЖУЛЕБИНО</text>
<g>
	<g>
		<path fill="#FFFFFF" d="M25.638,153.725c0,0-2.771,1.068,1.063-1.062c3.833-2.134,8.523-4.689,15.55-11.508
			c7.034-6.814,8.521-9.369,12.145-20.236c3.621-10.864,1.803-20.232,1.803-20.232l-1.278-8.946
			c-1.865-7.811,2.8-17.039,8.946-23.008c4.845,3.245,8.004,8.192,12.783,11.502c-2.823,3.99-7.784,5.841-7.668,12.785
			c13.142-17.17,31.946,4.078,49.849,5.114c0.97-5.845,0.37-13.257,6.393-14.061c11.416,3.346,3.475,16.741,5.114,24.287
			c2.272,10.492,11.758,15.488,20.453,19.169c2.485-28.515,4.076-67.118-8.949-84.358c4.54-12.351-3.198-21.962-11.505-25.565
			c-5.83-1.154-7.249,2.134-11.507,2.554c-1.75-12.027-15.149-5.819-20.452-5.112c-6.406,0.843-14.1-0.841-20.451,0
			c-27.035,3.591-50.299,27.418-53.688,56.243c-2.122,18.075,0,41.953,0,65.19c0,5.644-1.952,51,0,65.19
			c10.444,75.838,136.974,70.989,125.266-14.063c-3.281-23.823-14.8-31.713-30.675-51.127l-2.057-2.061l-25.028,21.989
			l-16.456-11.366l-9.548-8.329l-5.319-5.973l-2.277-3.343l-2.26-5.113"/>
		<path fill="none" stroke="#454545" stroke-width="4" stroke-miterlimit="10" d="M25.635,154.451c0,0-2.77,1.062,1.064-1.066
			c3.833-2.131,8.523-4.682,15.551-11.506c7.033-6.812,8.521-9.371,12.144-20.233c3.622-10.866,1.802-20.233,1.802-20.233
			l-1.277-8.951c-1.864-7.81,2.801-17.037,8.947-23.007c4.844,3.248,8,8.194,12.782,11.505c-2.823,3.988-7.785,5.841-7.668,12.781
			c13.142-17.166,31.941,4.078,49.849,5.115c0.972-5.843,0.372-13.256,6.391-14.062c11.419,3.351,3.479,16.749,5.116,24.289
			c2.273,10.491,11.759,15.494,20.45,19.173c2.491-28.52,4.08-67.119-8.944-84.362c4.54-12.351-3.199-21.962-11.506-25.567
			c-5.829-1.152-7.247,2.137-11.507,2.555c-1.749-12.022-15.147-5.815-20.451-5.112c-6.406,0.846-14.1-0.844-20.45,0
			c-27.04,3.593-50.3,27.416-53.688,56.242c-2.124,18.075,0,41.952,0,65.192c0,5.645-1.952,50.999,0,65.193
			c10.444,75.835,136.974,70.99,125.266-14.065c-3.281-23.822-14.806-31.713-30.676-51.128l-2.057-2.057"/>
		<path fill="#FFFFFF" stroke="#FFFFFF" stroke-linecap="round" stroke-linejoin="round" d="M141.884,33.72
			c-2.801,1.455-5.226,3.299-10.226,2.555c-1.099-4.08,2.008-3.952,2.559-6.393c-3.248-2.287-6.241,1.416-8.947-2.557
			C128.018,14.08,144.007,18.776,141.884,33.72z"/>
		<g>
			<path fill="#454545" d="M62.066,133.463c4.137,9.097,7.093,18.702,9.533,28.398c1.239,4.846,2.227,9.756,3.152,14.674
				c0.458,2.461,0.835,4.938,1.208,7.41c0.354,2.485,0.737,4.919,0.947,7.525c0.344,5.127,0,10.299-1.065,15.313
				c-1.102,5.006-2.825,9.862-5.168,14.375c-2.301,4.536-5.17,8.744-8.401,12.606c-3.272,3.824-6.855,7.391-10.933,10.292
				c3.559-3.492,6.733-7.317,9.557-11.352c2.838-4.025,5.292-8.295,7.286-12.741c3.98-8.885,5.963-18.618,5.199-28.237
				c-0.163-2.358-0.521-4.854-0.842-7.297c-0.328-2.452-0.718-4.893-1.082-7.344c-0.727-4.896-1.632-9.766-2.543-14.635
				C67,152.732,64.822,143.047,62.066,133.463z"/>
		</g>
		<g>
			<path fill="#454545" d="M55.89,119.382c0.641,2.077,1.256,4.158,1.845,6.244l-0.042-0.119c1.946,3.28,4.543,6.122,7.274,8.791
				c2.749,2.665,5.688,5.136,8.712,7.498c3.005,2.394,6.159,4.601,9.307,6.815c3.15,2.198,6.426,4.282,9.654,6.291l-1.9,0.076
				c3.114-2.185,6.175-4.536,9.234-6.842c3.044-2.337,6.038-4.737,8.983-7.19c2.917-2.482,5.812-4.999,8.482-7.732
				c1.352-1.352,2.618-2.779,3.807-4.274c1.158-1.508,2.253-3.097,2.9-4.933c-0.311,1.925-1.157,3.754-2.137,5.445
				c-0.977,1.708-2.141,3.294-3.341,4.841c-2.44,3.064-5.122,5.919-7.938,8.617c-2.798,2.718-5.733,5.282-8.731,7.761
				c-2.985,2.508-6.071,4.84-9.243,7.157l-0.905,0.658l-0.995-0.581c-3.426-2.011-6.633-4.229-9.844-6.496
				c-3.208-2.26-6.27-4.726-9.265-7.274c-2.97-2.579-5.828-5.31-8.424-8.292c-2.58-2.98-4.97-6.218-6.54-9.894l-0.038-0.086
				l-0.005-0.034C56.435,123.69,56.147,121.54,55.89,119.382z"/>
		</g>
		<g>
			<path fill="#FFFFFF" d="M55.403,95.861c3.88,1.446,7.213,4.254,9.783,7.572c1.305,1.661,2.362,3.508,3.265,5.42
				c0.449,0.941,0.821,1.983,1.156,2.927c0.343,1.013,0.647,2.022,0.903,3.047c0.467,2.062,0.76,4.18,0.778,6.306
				c0.01,2.115-0.255,4.255-0.557,6.215c-0.061,0.482-0.107,0.957-0.086,1.351c0.017,0.188,0.042,0.364,0.09,0.48
				c0.027,0.056,0.046,0.114,0.081,0.157l0.022,0.035l0.005,0.011c-0.084-0.075-0.014-0.011-0.028-0.025l0.035,0.034l0.134,0.124
				c0.151,0.136,0.624,0.356,1.05,0.439c0.446,0.108,0.929,0.166,1.416,0.204c1.969,0.151,4.019-0.025,6.061-0.211
				c-1.94,0.7-3.947,1.192-6.066,1.368c-0.53,0.034-1.073,0.034-1.634-0.024c-0.579-0.078-1.111-0.142-1.809-0.582l-0.164-0.12
				l-0.039-0.028c-0.025-0.023,0.032,0.033-0.064-0.056l-0.026-0.025l-0.102-0.106c-0.145-0.141-0.245-0.314-0.341-0.479
				c-0.182-0.343-0.254-0.675-0.313-0.991c-0.088-0.622-0.072-1.172-0.058-1.704c0.095-2.104,0.293-4.034,0.158-6.008
				c-0.082-1.959-0.367-3.905-0.838-5.817c-0.221-0.958-0.491-1.914-0.783-2.838c-0.324-0.989-0.649-1.865-1.026-2.793
				c-0.729-1.833-1.67-3.573-2.72-5.25C61.536,101.178,58.801,98.164,55.403,95.861z"/>
		</g>
		<path fill="#FFFFFF" stroke="#FFFFFF" stroke-linecap="round" stroke-linejoin="round" d="M106.099,51.611
			c2.631,0.754,5.315,2.455,2.554,5.112c3.121,3.246,2.721-2.697,7.673-1.274c0.764,3.062,1.84,5.823,1.278,10.226
			c-6.155,4.484-15.227,0.958-17.895-5.114C99.873,55.613,104.896,55.521,106.099,51.611z"/>
		<path fill="#FFFFFF" stroke="#FFFFFF" stroke-linecap="round" stroke-linejoin="round" d="M139.334,43.942
			c6.251,12.091-10.793,23.057-15.343,10.225c1.048-2.695,6.736-3.502,8.947-1.278c3.491-3.464-3.309-3.181-2.552-7.671
			C132.028,43.456,135.931,43.953,139.334,43.942z"/>
		<path fill="#FFFFFF" stroke="#FFFFFF" stroke-linecap="round" stroke-linejoin="round" d="M125.271,34.996
			c0.846,7.236-0.924,11.861-5.109,14.063C97.394,51.191,112.042,20.025,125.271,34.996z"/>
		<path fill="#FFFFFF" stroke="#FFFFFF" stroke-linecap="round" stroke-linejoin="round" d="M92.037,29.882
			c2.788,2.324,8.998,1.225,10.228,5.113c0.379,3.361-1.767,4.189-5.114,3.836c-1.046,4.882,6.158,1.507,5.114,6.391
			c-4.042,0.65-5.616,3.759-10.228,3.836C87.242,45.664,86.488,33.024,92.037,29.882z"/>
		<path fill="#FFFFFF" stroke="#FFFFFF" stroke-linecap="round" stroke-linejoin="round" d="M118.88,15.821c0,2.979,0,5.969,0,8.948
			c-4.424,1.007-5.394-1.419-7.671-2.558c-3.475-0.921,0.923,6.033-2.555,5.112c-3.091,2.724-5.647-2.849-7.67-5.112
			C102.183,14.964,112.81,10.629,118.88,15.821z"/>
		<path opacity="0.21" fill="#E4C0DB" enable-background="new    " d="M93.952,114.269c0,0,1.76-5.714,4.639-7.828
			c2.875-2.119,3.513-1.401,6.868-1.601c3.357-0.198,3.345-0.163,3.998,0.803c0.646,0.961,1.916-1.081,0,2.235
			c-1.918,3.32-6.265,3.759-8.954,5.116c-2.69,1.361-4.47,2.235-4.949,2.074C95.072,114.905,93.952,114.269,93.952,114.269z"/>
	</g>
	<path fill="#E4C0DB" d="M94.396,134.11c0.831,5.519-2.211,7.167-3.833,10.227c-5.996,1.302-7.277-2.114-10.226-3.839
		C83.866,137.212,87.417,133.939,94.396,134.11z"/>
	<path fill="#FFFFFF" d="M102.696,99.594c-6.542,4.284-11.898,15.98-24.282,10.226c0.408-3.003,2.018-4.791,1.276-8.944
		c1.905,1.084,1.854,4.112,2.554,6.39C91.653,107.51,94.236,96.298,102.696,99.594z"/>
</g>
</svg>
