<?xml version="1.0" encoding="utf-8"?>
<!-- Generator: Adobe Illustrator 15.0.0, SVG Export Plug-In . SVG Version: 6.00 Build 0)  -->
<!DOCTYPE svg PUBLIC "-//W3C//DTD SVG 1.1//EN" "http://www.w3.org/Graphics/SVG/1.1/DTD/svg11.dtd">
<svg version="1.1" id="Layer_1" xmlns="http://www.w3.org/2000/svg" xmlns:xlink="http://www.w3.org/1999/xlink" x="0px" y="0px"
	 width="640px" height="480px" viewBox="0 0 640 480" enable-background="new 0 0 640 480" xml:space="preserve">
<rect x="-0.348" y="43.384" fill="none" width="640.347" height="218.314"/>
<text transform="matrix(1 0 0 1 180.6523 113.666)"><tspan x="0" y="0" fill="#444445" font-family="'FuturisCyrillic'" font-size="95.7527" letter-spacing="-4">КРАСА</tspan><tspan x="-104.047" y="86.177" fill="#444445" font-family="'FuturisCyrillic'" font-size="95.7527" letter-spacing="-4">ЖУЛЕБИНО</tspan></text>
<g>
	<g>
		<path fill="#C1B49A" d="M264.769,341.258c0,0-2.35,0.906,0.902-0.902c3.251-1.81,7.229-3.977,13.189-9.76
			c5.965-5.779,7.227-7.948,10.299-17.163c3.072-9.214,1.529-17.159,1.529-17.159l-1.084-7.588
			c-1.581-6.625,2.375-14.451,7.588-19.514c4.109,2.752,6.788,6.948,10.841,9.755c-2.394,3.383-6.602,4.954-6.503,10.843
			c11.146-14.562,27.094,3.458,42.279,4.337c0.823-4.957,0.314-11.244,5.422-11.926c9.681,2.839,2.947,14.2,4.337,20.599
			c1.926,8.899,9.972,13.136,17.347,16.258c2.109-24.184,3.456-56.925-7.59-71.547c3.851-10.474-2.712-18.627-9.757-21.683
			c-4.945-0.978-6.148,1.81-9.759,2.167c-1.485-10.201-12.848-4.936-17.346-4.336c-5.433,0.715-11.959-0.713-17.345,0
			c-22.929,3.045-42.661,23.255-45.534,47.701c-1.8,15.33,0,35.581,0,55.289c0,4.787-1.656,43.255,0,55.291
			c8.858,64.32,116.172,60.208,106.241-11.928c-2.783-20.206-12.551-26.897-26.017-43.363l-1.744-1.747l-21.226,18.65l-13.957-9.641
			l-8.098-7.064l-4.512-5.066l-1.931-2.835l-1.916-4.337"/>
		<path fill="none" stroke="#444444" stroke-width="4" stroke-miterlimit="10" d="M264.767,341.873c0,0-2.349,0.902,0.903-0.905
			c3.251-1.806,7.229-3.971,13.189-9.758c5.964-5.778,7.227-7.947,10.299-17.16c3.072-9.216,1.529-17.162,1.529-17.162l-1.084-7.59
			c-1.581-6.623,2.375-14.45,7.588-19.514c4.109,2.755,6.785,6.951,10.841,9.758c-2.394,3.383-6.602,4.954-6.503,10.84
			c11.146-14.559,27.09,3.458,42.278,4.337c0.824-4.956,0.315-11.243,5.42-11.926c9.684,2.842,2.95,14.205,4.34,20.599
			c1.926,8.899,9.972,13.141,17.343,16.261c2.113-24.187,3.46-56.925-7.586-71.55c3.851-10.474-2.712-18.627-9.757-21.683
			c-4.945-0.977-6.148,1.812-9.76,2.167c-1.484-10.197-12.847-4.933-17.345-4.336c-5.433,0.718-11.959-0.716-17.345,0
			c-22.933,3.048-42.662,23.253-45.534,47.701c-1.801,15.33,0,35.58,0,55.291c0,4.788-1.656,43.254,0,55.292
			c8.858,64.32,116.172,60.21,106.241-11.928c-2.783-20.206-12.557-26.897-26.018-43.364l-1.743-1.744"/>
		<path fill="#FFFFFF" stroke="#FFFFFF" stroke-linecap="round" stroke-linejoin="round" d="M363.362,239.477
			c-2.375,1.234-4.432,2.798-8.673,2.167c-0.931-3.46,1.703-3.351,2.17-5.422c-2.754-1.94-5.293,1.201-7.588-2.169
			C351.599,222.82,365.162,226.802,363.362,239.477z"/>
		<g>
			<path fill="#444444" d="M295.665,324.073c3.509,7.717,6.016,15.862,8.085,24.085c1.052,4.112,1.889,8.275,2.674,12.447
				c0.388,2.088,0.708,4.187,1.024,6.286c0.3,2.108,0.625,4.171,0.804,6.381c0.292,4.349,0,8.736-0.904,12.99
				c-0.935,4.245-2.396,8.363-4.383,12.191c-1.952,3.847-4.385,7.415-7.125,10.692c-2.775,3.243-5.815,6.271-9.272,8.73
				c3.019-2.963,5.71-6.206,8.105-9.629c2.407-3.414,4.488-7.035,6.18-10.806c3.375-7.536,5.057-15.791,4.408-23.949
				c-0.137-2-0.44-4.117-0.713-6.189c-0.278-2.08-0.608-4.152-0.918-6.229c-0.617-4.153-1.384-8.282-2.157-12.413
				C299.849,340.416,298.002,332.202,295.665,324.073z"/>
		</g>
		<g>
			<path fill="#444444" d="M290.427,312.13c0.543,1.761,1.065,3.526,1.565,5.296l-0.036-0.102c1.651,2.782,3.853,5.194,6.17,7.456
				c2.331,2.261,4.824,4.357,7.389,6.36c2.548,2.03,5.224,3.903,7.893,5.782c2.672,1.864,5.45,3.631,8.187,5.334l-1.61,0.064
				c2.641-1.852,5.237-3.847,7.832-5.802c2.581-1.983,5.121-4.018,7.619-6.098c2.473-2.106,4.928-4.24,7.194-6.557
				c1.146-1.147,2.22-2.358,3.229-3.625c0.982-1.28,1.911-2.628,2.459-4.183c-0.264,1.633-0.98,3.183-1.812,4.618
				c-0.828,1.449-1.816,2.794-2.834,4.106c-2.071,2.599-4.344,5.022-6.733,7.308c-2.373,2.306-4.862,4.479-7.405,6.583
				c-2.532,2.126-5.15,4.106-7.839,6.069l-0.767,0.56l-0.844-0.494c-2.906-1.706-5.625-3.586-8.348-5.509
				c-2.721-1.917-5.318-4.008-7.859-6.168c-2.519-2.189-4.943-4.504-7.144-7.033c-2.188-2.53-4.216-5.275-5.546-8.391l-0.032-0.073
				l-0.004-0.029C290.888,315.784,290.646,313.96,290.427,312.13z"/>
		</g>
		<g>
			<path fill="#444444" d="M290.015,292.182c3.29,1.225,6.118,3.608,8.298,6.422c1.106,1.408,2.003,2.974,2.768,4.595
				c0.381,0.798,0.697,1.682,0.981,2.482c0.29,0.861,0.548,1.715,0.765,2.586c0.396,1.749,0.644,3.545,0.66,5.347
				c0.008,1.794-0.217,3.609-0.473,5.27c-0.052,0.41-0.091,0.812-0.073,1.147c0.014,0.159,0.035,0.309,0.076,0.406
				c0.023,0.047,0.039,0.097,0.069,0.133l0.019,0.031l0.005,0.008c-0.072-0.063-0.012-0.009-0.024-0.02l0.029,0.028l0.114,0.105
				c0.128,0.116,0.529,0.302,0.891,0.374c0.378,0.091,0.787,0.139,1.201,0.172c1.67,0.128,3.408-0.021,5.14-0.179
				c-1.645,0.592-3.347,1.011-5.144,1.16c-0.451,0.028-0.91,0.029-1.387-0.021c-0.49-0.066-0.942-0.121-1.534-0.494l-0.138-0.1
				l-0.033-0.024c-0.022-0.02,0.027,0.027-0.054-0.047l-0.022-0.022l-0.087-0.091c-0.122-0.119-0.208-0.266-0.289-0.406
				c-0.155-0.291-0.216-0.573-0.265-0.841c-0.076-0.527-0.063-0.994-0.049-1.445c0.081-1.785,0.249-3.422,0.135-5.096
				c-0.07-1.662-0.312-3.312-0.711-4.934c-0.187-0.813-0.417-1.623-0.664-2.407c-0.274-0.838-0.55-1.583-0.87-2.37
				c-0.618-1.555-1.417-3.029-2.307-4.452C295.215,296.691,292.896,294.134,290.015,292.182z"/>
		</g>
		<path fill="#FFFFFF" stroke="#FFFFFF" stroke-linecap="round" stroke-linejoin="round" d="M333.01,254.652
			c2.231,0.639,4.507,2.083,2.167,4.337c2.646,2.751,2.307-2.289,6.506-1.082c0.649,2.597,1.56,4.939,1.084,8.672
			c-5.218,3.804-12.913,0.812-15.175-4.338C327.729,258.045,331.99,257.968,333.01,254.652z"/>
		<path fill="#FFFFFF" stroke="#FFFFFF" stroke-linecap="round" stroke-linejoin="round" d="M361.198,248.149
			c5.302,10.253-9.154,19.555-13.013,8.672c0.889-2.288,5.714-2.971,7.588-1.084c2.961-2.938-2.805-2.7-2.164-6.506
			C355.002,247.735,358.312,248.156,361.198,248.149z"/>
		<path fill="#FFFFFF" stroke="#FFFFFF" stroke-linecap="round" stroke-linejoin="round" d="M349.271,240.559
			c0.717,6.136-0.782,10.059-4.334,11.927C325.627,254.295,338.05,227.862,349.271,240.559z"/>
		<path fill="#FFFFFF" stroke="#FFFFFF" stroke-linecap="round" stroke-linejoin="round" d="M321.084,236.222
			c2.364,1.971,7.632,1.038,8.675,4.337c0.321,2.85-1.499,3.553-4.337,3.254c-0.888,4.14,5.222,1.278,4.337,5.419
			c-3.428,0.552-4.763,3.188-8.675,3.254C317.017,249.607,316.379,238.887,321.084,236.222z"/>
		<path fill="#FFFFFF" stroke="#FFFFFF" stroke-linecap="round" stroke-linejoin="round" d="M343.85,224.297
			c0,2.527,0,5.062,0,7.589c-3.752,0.855-4.575-1.204-6.506-2.169c-2.948-0.781,0.783,5.117-2.167,4.336
			c-2.623,2.31-4.79-2.417-6.505-4.336C329.689,223.57,338.702,219.893,343.85,224.297z"/>
		<path opacity="0.21" fill="#E5C0DB" d="M322.709,307.793c0,0,1.492-4.846,3.934-6.639c2.438-1.797,2.979-1.188,5.825-1.358
			c2.847-0.168,2.837-0.138,3.39,0.68c0.547,0.816,1.625-0.916,0,1.895c-1.627,2.817-5.315,3.188-7.594,4.339
			c-2.281,1.154-3.792,1.896-4.197,1.759C323.659,308.334,322.709,307.793,322.709,307.793z"/>
	</g>
	<path fill="#E5C0DB" d="M323.084,324.621c0.705,4.681-1.875,6.079-3.25,8.673c-5.086,1.105-6.172-1.792-8.673-3.255
		C314.154,327.253,317.165,324.478,323.084,324.621z"/>
	<path fill="#C1B49A" d="M330.124,295.347c-5.549,3.633-10.091,13.553-20.594,8.673c0.346-2.547,1.711-4.064,1.082-7.587
		c1.615,0.921,1.573,3.489,2.167,5.42C320.76,302.06,322.949,292.552,330.124,295.347z"/>
</g>
</svg>
