<?xml version="1.0" encoding="utf-8"?>
<!-- Generator: Adobe Illustrator 15.0.0, SVG Export Plug-In . SVG Version: 6.00 Build 0)  -->
<!DOCTYPE svg PUBLIC "-//W3C//DTD SVG 1.1//EN" "http://www.w3.org/Graphics/SVG/1.1/DTD/svg11.dtd">
<svg version="1.1" id="Layer_1" xmlns="http://www.w3.org/2000/svg" xmlns:xlink="http://www.w3.org/1999/xlink" x="0px" y="0px"
	 width="640px" height="480px" viewBox="130 40 400 400" enable-background="new 0 0 640 480" xml:space="preserve">
<rect x="-0.348" y="43.384" fill="none" width="640.347" height="218.314"/>
<g enable-background="new    ">
	<path fill="#444445" d="M189.068,113.666V46.644h6.522v31.115l29.969-31.115h8.042l-31.793,32.447l32.471,34.575h-8.72
		L195.59,81.102v32.564H189.068z"/>
	<path fill="#444445" d="M239.821,113.666V46.644h18.585c5.049,0,9.663,1.138,13.839,3.413c4.176,2.275,6.265,7.045,6.265,14.307
		c0,7.341-2.092,12.142-6.277,14.4c-4.185,2.26-8.794,3.39-13.828,3.39h-12.062v31.513H239.821z M246.344,51.997V76.8h11.771
		c9.125,0,13.687-4.145,13.687-12.437c0-5.049-1.428-8.372-4.286-9.97c-2.857-1.598-5.991-2.396-9.401-2.396H246.344z"/>
	<path fill="#444445" d="M280.055,113.666l30.063-68.939l29.97,68.939h-6.687l-9.304-21.834h-28.053l-9.281,21.834H280.055z
		 M298.336,86.479h23.471l-11.689-27.491L298.336,86.479z"/>
	<path fill="#444445" d="M401.57,100.271v7.458c-6.951,5.236-15.094,7.854-24.429,7.854c-4.598,0-8.989-0.822-13.173-2.467
		c-4.185-1.644-7.891-4.028-11.116-7.153c-3.226-3.124-5.747-6.88-7.562-11.268c-1.815-4.387-2.724-9.237-2.724-14.552
		c0-4.707,0.822-9.207,2.467-13.501c1.645-4.293,3.997-8.092,7.06-11.396c3.062-3.304,6.729-5.883,10.999-7.737
		c4.27-1.854,8.953-2.782,14.05-2.782c4.363,0,8.532,0.585,12.507,1.754s7.948,3.265,11.922,6.288v7.574
		c-6.998-6.842-15.078-10.263-24.242-10.263c-3.959,0-7.66,0.814-11.104,2.443c-3.445,1.629-6.422,3.865-8.93,6.709
		c-2.51,2.845-4.442,6.07-5.799,9.678c-1.355,3.608-2.033,7.353-2.033,11.233c0,5.782,1.27,10.96,3.811,15.534
		c2.54,4.574,5.945,8.143,10.216,10.706c4.271,2.564,8.853,3.846,13.745,3.846c4.317,0,8.576-0.856,12.776-2.571
		C394.211,105.944,398.064,103.481,401.57,100.271z"/>
	<path fill="#444445" d="M401.361,113.666l30.062-68.939l29.971,68.939h-6.687l-9.304-21.834h-28.053l-9.281,21.834H401.361z
		 M419.643,86.479h23.471l-11.689-27.491L419.643,86.479z"/>
</g>
<g enable-background="new    ">
	<path fill="#444445" d="M113.845,199.843v-32.845l-27.468,32.845h-8.72l29.97-34.271l-28.24-32.752h8.042l26.416,31.489V132.82
		h6.522v31.489l26.416-31.489h8.042l-28.239,32.752l29.969,34.271h-8.72l-27.468-32.845v32.845H113.845z"/>
	<path fill="#444445" d="M170.139,199.843l9.281-20.291L154.99,132.82h7.387l20.292,39.929l18.094-39.929h6.616l-30.647,67.022
		H170.139z"/>
	<path fill="#444445" d="M219.162,132.82h37.263v67.022h-6.522v-61.669h-24.218v36.095c0,4.177-0.222,7.796-0.667,10.858
		s-1.243,5.739-2.396,8.03c-1.154,2.291-2.81,4.075-4.968,5.354c-2.159,1.277-4.906,1.916-8.24,1.916
		c-1.263,0-3.016-0.194-5.26-0.584v-5.33c1.914,0.312,3.12,0.468,3.618,0.468c3.298,0,5.784-0.951,7.457-2.854
		c1.673-1.901,2.747-4.295,3.221-7.179c0.475-2.885,0.712-6.338,0.712-10.36V132.82z"/>
	<path fill="#444445" d="M269.354,199.843V132.82h35.908v5.354h-29.385v21.46h28.333v5.354h-28.333v29.502h29.385v5.354H269.354z"/>
	<path fill="#444445" d="M315.128,199.843V132.82h33.71v5.354H321.65v22.115h11.011c15.382,0,23.073,6.545,23.073,19.637
		c0,5.563-1.367,9.818-4.104,12.764c-2.734,2.945-5.98,4.874-9.736,5.786c-3.756,0.911-7.761,1.367-12.016,1.367H315.128z
		 M321.65,194.489h9.281c2.555,0,5.158-0.304,7.808-0.912s5.026-1.996,7.13-4.165c2.104-2.167,3.156-5.334,3.156-9.498
		c0-4.103-0.967-7.21-2.898-9.324c-1.934-2.113-4.096-3.466-6.488-4.059s-4.749-0.89-7.071-0.89H321.65V194.489z"/>
	<path fill="#444445" d="M364.643,132.82h6.521v53.043l45.772-55.731v69.711h-6.521V146.8l-45.772,55.731V132.82z"/>
	<path fill="#444445" d="M429.843,199.843V132.82h6.521v27.469h38.572V132.82h6.522v67.022h-6.522v-34.201h-38.572v34.201H429.843z"
		/>
	<path fill="#444445" d="M491.326,166.32c0-4.77,0.845-9.305,2.536-13.605c1.691-4.302,4.13-8.093,7.317-11.373
		c3.187-3.28,7.021-5.841,11.501-7.68s9.433-2.759,14.856-2.759c5.377,0,10.294,0.92,14.751,2.759s8.299,4.406,11.525,7.703
		c3.226,3.296,5.684,7.083,7.375,11.361c1.69,4.277,2.536,8.81,2.536,13.594c0,4.769-0.85,9.296-2.548,13.582
		c-1.699,4.286-4.157,8.076-7.375,11.373c-3.219,3.296-7.068,5.867-11.549,7.714s-9.386,2.771-14.716,2.771
		c-5.393,0-10.337-0.924-14.833-2.771s-8.334-4.406-11.513-7.679c-3.18-3.273-5.619-7.068-7.317-11.385
		C492.175,175.608,491.326,171.073,491.326,166.32z M498.223,166.32c0,3.974,0.678,7.757,2.033,11.35
		c1.356,3.592,3.335,6.811,5.938,9.654c2.603,2.845,5.715,5.069,9.339,6.674c3.623,1.605,7.624,2.408,12.004,2.408
		c4.379,0,8.389-0.799,12.027-2.396c3.639-1.597,6.744-3.802,9.316-6.615c2.571-2.813,4.538-6.031,5.902-9.655
		c1.363-3.623,2.046-7.43,2.046-11.419c0-4.006-0.683-7.82-2.046-11.443c-1.364-3.623-3.327-6.834-5.891-9.632
		c-2.564-2.797-5.674-4.994-9.328-6.592s-7.664-2.396-12.027-2.396c-4.38,0-8.389,0.807-12.027,2.42
		c-3.64,1.613-6.748,3.826-9.327,6.639c-2.58,2.813-4.552,6.023-5.915,9.632C498.904,158.555,498.223,162.346,498.223,166.32z"/>
</g>
<g>
	<g>
		<path fill="#C1B49A" d="M264.769,341.258c0,0-2.35,0.906,0.902-0.901c3.251-1.811,7.229-3.978,13.189-9.761
			c5.965-5.778,7.227-7.947,10.299-17.163c3.072-9.214,1.529-17.159,1.529-17.159l-1.084-7.588
			c-1.581-6.625,2.375-14.451,7.588-19.514c4.109,2.752,6.788,6.948,10.841,9.755c-2.394,3.384-6.602,4.954-6.503,10.843
			c11.146-14.562,27.094,3.459,42.278,4.338c0.823-4.957,0.314-11.244,5.422-11.926c9.682,2.838,2.947,14.199,4.338,20.598
			c1.926,8.899,9.972,13.137,17.347,16.259c2.108-24.185,3.456-56.925-7.59-71.547c3.851-10.474-2.712-18.627-9.757-21.683
			c-4.945-0.978-6.148,1.81-9.76,2.167c-1.484-10.201-12.848-4.936-17.346-4.336c-5.433,0.715-11.959-0.713-17.345,0
			c-22.929,3.045-42.661,23.255-45.534,47.701c-1.8,15.33,0,35.581,0,55.289c0,4.787-1.656,43.255,0,55.291
			c8.858,64.32,116.172,60.208,106.241-11.928c-2.783-20.206-12.552-26.897-26.017-43.363l-1.744-1.747l-21.227,18.65l-13.957-9.642
			l-8.098-7.063l-4.512-5.066l-1.931-2.835l-1.916-4.337"/>
		<path fill="none" stroke="#444444" stroke-width="4" stroke-miterlimit="10" d="M264.767,341.873c0,0-2.349,0.902,0.903-0.905
			c3.251-1.806,7.229-3.971,13.189-9.758c5.964-5.778,7.227-7.947,10.299-17.16c3.072-9.216,1.529-17.161,1.529-17.161l-1.084-7.591
			c-1.581-6.623,2.375-14.45,7.588-19.514c4.109,2.755,6.785,6.95,10.841,9.758c-2.394,3.383-6.602,4.954-6.503,10.84
			c11.146-14.559,27.09,3.458,42.278,4.337c0.824-4.955,0.315-11.242,5.42-11.926c9.685,2.842,2.951,14.205,4.34,20.6
			c1.927,8.898,9.973,13.141,17.344,16.261c2.113-24.188,3.46-56.925-7.586-71.55c3.851-10.475-2.713-18.627-9.758-21.684
			c-4.944-0.977-6.147,1.812-9.76,2.167c-1.483-10.197-12.847-4.933-17.345-4.336c-5.433,0.718-11.959-0.716-17.345,0
			c-22.933,3.048-42.662,23.253-45.534,47.701c-1.801,15.33,0,35.58,0,55.291c0,4.788-1.656,43.254,0,55.292
			c8.858,64.32,116.172,60.21,106.241-11.928c-2.783-20.206-12.557-26.897-26.018-43.364l-1.744-1.744"/>
		<path fill="#FFFFFF" stroke="#FFFFFF" stroke-linecap="round" stroke-linejoin="round" d="M363.361,239.477
			c-2.375,1.234-4.432,2.798-8.672,2.167c-0.932-3.46,1.703-3.352,2.17-5.422c-2.754-1.94-5.293,1.201-7.588-2.169
			C351.6,222.82,365.162,226.802,363.361,239.477z"/>
		<g>
			<path fill="#444444" d="M295.665,324.073c3.509,7.717,6.016,15.861,8.085,24.085c1.052,4.111,1.889,8.274,2.674,12.447
				c0.388,2.088,0.708,4.187,1.024,6.285c0.3,2.108,0.625,4.171,0.804,6.382c0.292,4.349,0,8.735-0.904,12.989
				c-0.935,4.245-2.396,8.363-4.383,12.191c-1.952,3.847-4.385,7.415-7.125,10.691c-2.775,3.243-5.815,6.271-9.272,8.73
				c3.019-2.963,5.71-6.206,8.105-9.629c2.407-3.414,4.488-7.035,6.18-10.806c3.375-7.536,5.057-15.791,4.408-23.949
				c-0.137-2-0.44-4.117-0.713-6.189c-0.278-2.08-0.608-4.151-0.918-6.229c-0.617-4.153-1.384-8.282-2.157-12.413
				C299.849,340.416,298.002,332.202,295.665,324.073z"/>
		</g>
		<g>
			<path fill="#444444" d="M290.427,312.13c0.543,1.761,1.065,3.526,1.565,5.296l-0.036-0.102c1.651,2.782,3.853,5.193,6.17,7.456
				c2.331,2.261,4.824,4.356,7.389,6.359c2.548,2.03,5.224,3.903,7.893,5.782c2.672,1.864,5.45,3.631,8.188,5.334l-1.611,0.064
				c2.641-1.853,5.238-3.848,7.832-5.803c2.582-1.982,5.121-4.018,7.619-6.098c2.474-2.105,4.929-4.24,7.194-6.557
				c1.146-1.147,2.22-2.358,3.229-3.625c0.981-1.28,1.91-2.628,2.459-4.184c-0.264,1.633-0.98,3.184-1.812,4.618
				c-0.828,1.449-1.816,2.794-2.834,4.106c-2.07,2.599-4.344,5.021-6.732,7.308c-2.373,2.306-4.862,4.479-7.405,6.583
				c-2.532,2.126-5.15,4.106-7.839,6.069l-0.768,0.56l-0.844-0.494c-2.906-1.706-5.625-3.586-8.348-5.509
				c-2.721-1.917-5.318-4.008-7.859-6.168c-2.519-2.188-4.943-4.504-7.144-7.033c-2.188-2.529-4.216-5.274-5.546-8.391l-0.032-0.073
				l-0.004-0.029C290.888,315.784,290.646,313.96,290.427,312.13z"/>
		</g>
		<g>
			<path fill="#444444" d="M290.015,292.182c3.29,1.226,6.118,3.608,8.298,6.422c1.106,1.408,2.003,2.975,2.768,4.596
				c0.381,0.798,0.697,1.682,0.981,2.482c0.29,0.86,0.548,1.715,0.765,2.585c0.396,1.749,0.644,3.546,0.66,5.348
				c0.008,1.794-0.217,3.608-0.473,5.27c-0.052,0.41-0.091,0.812-0.073,1.147c0.014,0.159,0.035,0.309,0.076,0.406
				c0.023,0.047,0.039,0.097,0.069,0.133l0.019,0.03l0.005,0.009c-0.072-0.063-0.012-0.01-0.024-0.021l0.029,0.028l0.114,0.104
				c0.128,0.116,0.529,0.303,0.891,0.374c0.378,0.092,0.787,0.14,1.201,0.172c1.67,0.129,3.408-0.021,5.14-0.179
				c-1.645,0.592-3.347,1.011-5.144,1.16c-0.451,0.028-0.91,0.029-1.387-0.021c-0.49-0.066-0.942-0.121-1.534-0.494l-0.138-0.101
				l-0.033-0.023c-0.022-0.021,0.027,0.026-0.054-0.047l-0.022-0.022l-0.087-0.091c-0.122-0.119-0.208-0.267-0.289-0.406
				c-0.155-0.291-0.216-0.573-0.265-0.841c-0.076-0.527-0.062-0.994-0.049-1.445c0.081-1.785,0.249-3.422,0.135-5.096
				c-0.07-1.662-0.312-3.312-0.711-4.934c-0.187-0.813-0.417-1.623-0.664-2.407c-0.274-0.839-0.55-1.583-0.87-2.37
				c-0.618-1.555-1.417-3.029-2.307-4.452C295.215,296.691,292.896,294.134,290.015,292.182z"/>
		</g>
		<path fill="#FFFFFF" stroke="#FFFFFF" stroke-linecap="round" stroke-linejoin="round" d="M333.01,254.652
			c2.231,0.639,4.508,2.082,2.167,4.336c2.646,2.752,2.308-2.288,6.507-1.081c0.648,2.597,1.56,4.938,1.084,8.672
			c-5.219,3.804-12.914,0.812-15.176-4.338C327.729,258.045,331.99,257.968,333.01,254.652z"/>
		<path fill="#FFFFFF" stroke="#FFFFFF" stroke-linecap="round" stroke-linejoin="round" d="M361.198,248.148
			c5.302,10.254-9.154,19.556-13.013,8.672c0.889-2.287,5.713-2.971,7.588-1.084c2.961-2.938-2.806-2.699-2.164-6.506
			C355.002,247.734,358.312,248.156,361.198,248.148z"/>
		<path fill="#FFFFFF" stroke="#FFFFFF" stroke-linecap="round" stroke-linejoin="round" d="M349.271,240.559
			c0.717,6.137-0.783,10.06-4.334,11.928C325.627,254.295,338.05,227.862,349.271,240.559z"/>
		<path fill="#FFFFFF" stroke="#FFFFFF" stroke-linecap="round" stroke-linejoin="round" d="M321.084,236.222
			c2.364,1.971,7.632,1.038,8.675,4.336c0.321,2.851-1.499,3.553-4.337,3.254c-0.888,4.141,5.223,1.278,4.337,5.42
			c-3.428,0.552-4.763,3.188-8.675,3.254C317.017,249.607,316.379,238.887,321.084,236.222z"/>
		<path fill="#FFFFFF" stroke="#FFFFFF" stroke-linecap="round" stroke-linejoin="round" d="M343.85,224.297
			c0,2.527,0,5.062,0,7.589c-3.752,0.855-4.574-1.204-6.506-2.169c-2.947-0.781,0.783,5.117-2.167,4.336
			c-2.622,2.31-4.79-2.417-6.505-4.336C329.689,223.57,338.702,219.893,343.85,224.297z"/>
		<path opacity="0.21" fill="#E5C0DB" enable-background="new    " d="M322.709,307.793c0,0,1.492-4.846,3.934-6.639
			c2.438-1.797,2.979-1.188,5.825-1.358c2.847-0.168,2.837-0.138,3.39,0.681c0.548,0.815,1.625-0.916,0,1.895
			c-1.627,2.816-5.314,3.188-7.594,4.339c-2.281,1.154-3.791,1.896-4.197,1.759C323.659,308.334,322.709,307.793,322.709,307.793z"
			/>
	</g>
	<path fill="#E5C0DB" d="M323.084,324.621c0.705,4.681-1.875,6.079-3.25,8.673c-5.086,1.105-6.172-1.792-8.673-3.255
		C314.154,327.253,317.165,324.478,323.084,324.621z"/>
	<path fill="#C1B49A" d="M330.124,295.348c-5.549,3.633-10.091,13.553-20.594,8.672c0.346-2.547,1.711-4.063,1.082-7.586
		c1.615,0.92,1.573,3.488,2.167,5.42C320.76,302.061,322.949,292.552,330.124,295.348z"/>
</g>
</svg>
