<svg version="1.1" id="Layer_1" xmlns="http://www.w3.org/2000/svg" x="0" y="0" width="640" height="480" xml:space="preserve"><path fill="none" d="M-64.208 9.279h768.417v261.977H-64.208z"/><path d="M163.091 93.618V13.191h7.826v37.338l35.963-37.338h9.65l-38.152 38.937 38.965 41.49H206.88l-35.963-39.077v39.077h-7.826zm60.903 0V13.191h22.303c6.059 0 11.595 1.366 16.605 4.096 5.012 2.73 7.519 8.454 7.519 17.168 0 8.809-2.511 14.57-7.532 17.28-5.021 2.712-10.553 4.068-16.594 4.068H231.82v37.815h-7.826zm7.828-74.003v29.764h14.125c10.949 0 16.424-4.974 16.424-14.925 0-6.059-1.713-10.046-5.143-11.964-3.429-1.917-7.189-2.875-11.281-2.875h-14.125zm40.453 74.003l36.075-82.727 35.964 82.727h-8.024l-11.165-26.201h-33.663l-11.138 26.201h-8.049zm21.937-32.625h28.165l-14.026-32.989-14.139 32.989zm123.881 16.55v8.95c-8.341 6.283-18.112 9.425-29.314 9.425-5.518 0-10.787-.986-15.808-2.96a40.003 40.003 0 0 1-13.34-8.583c-3.871-3.749-6.896-8.256-9.074-13.522-2.178-5.264-3.269-11.084-3.269-17.462 0-5.648.986-11.048 2.961-16.201 1.974-5.151 4.796-9.71 8.472-13.675 3.674-3.965 8.074-7.06 13.198-9.285s10.744-3.338 16.86-3.338c5.235 0 10.238.702 15.009 2.105 4.77 1.403 9.537 3.918 14.306 7.545v9.089c-8.397-8.21-18.093-12.315-29.09-12.315-4.751 0-9.192.977-13.325 2.932a32.876 32.876 0 0 0-10.716 8.051c-3.012 3.414-5.33 7.284-6.959 11.613a38.036 38.036 0 0 0-2.439 13.479c0 6.938 1.524 13.152 4.573 18.641 3.048 5.489 7.134 9.771 12.259 12.847 5.126 3.077 10.624 4.615 16.494 4.615 5.181 0 10.291-1.027 15.331-3.085 5.04-2.058 9.664-5.013 13.871-8.866zm-.251 16.075l36.075-82.727 35.965 82.727h-8.024l-11.165-26.201H437.03l-11.138 26.201h-8.05zm21.938-32.625h28.165l-14.026-32.989-14.139 32.989zM72.823 197.03v-39.414L39.861 197.03H29.397l35.964-41.125-33.888-39.303h9.65l31.699 37.787v-37.787h7.827v37.787l31.699-37.787h9.65l-33.887 39.303 35.963 41.125H113.61l-32.961-39.414v39.414h-7.826zm67.553 0l11.137-24.35-29.316-56.078h8.865l24.35 47.915 21.713-47.915h7.939l-36.776 80.427-7.912.001zm58.828-80.428h44.715v80.427h-7.826v-74.003h-29.062v43.314c0 5.012-.267 9.354-.801 13.029-.533 3.674-1.492 6.887-2.875 9.636-1.385 2.749-3.372 4.89-5.962 6.425-2.591 1.533-5.887 2.299-9.888 2.299-1.516 0-3.619-.232-6.312-.7v-6.396c2.297.374 3.744.561 4.341.561 3.958 0 6.941-1.141 8.949-3.424 2.007-2.281 3.296-5.154 3.865-8.615.57-3.462.854-7.605.854-12.432l.002-50.121zm60.23 80.428v-80.428h43.09v6.425h-35.262v25.752h33.999v6.425h-33.999v35.402h35.262v6.426h-43.09v-.002zm54.928 0v-80.428h40.452v6.425h-32.625v26.538h13.213c18.458 0 27.688 7.854 27.688 23.564 0 6.676-1.641 11.781-4.925 15.316-3.281 3.535-7.176 5.85-11.684 6.943-4.507 1.094-9.312 1.641-14.419 1.641h-17.7zm7.827-6.425h11.137c3.066 0 6.189-.364 9.369-1.095 3.181-.729 6.031-2.395 8.557-4.998 2.524-2.6 3.787-6.4 3.787-11.396 0-4.924-1.16-8.652-3.478-11.189-2.321-2.536-4.915-4.159-7.786-4.871-2.87-.712-5.698-1.068-8.484-1.068h-13.102v34.617zm51.591-74.003h7.825v63.652l54.927-66.878v83.653h-7.825v-63.651l-54.927 66.877v-83.653zm78.241 80.428v-80.428h7.825v32.963h46.286v-32.963h7.827v80.427h-7.827v-41.042h-46.286v41.042l-7.825.001zm73.779-40.228c0-5.724 1.015-11.166 3.044-16.326 2.029-5.162 4.956-9.711 8.78-13.647s8.425-7.009 13.801-9.216c5.376-2.207 11.319-3.311 17.827-3.311 6.453 0 12.354 1.104 17.701 3.311 5.349 2.207 9.959 5.287 13.83 9.244a40.704 40.704 0 0 1 8.851 13.633c2.027 5.132 3.043 10.572 3.043 16.312 0 5.723-1.021 11.155-3.058 16.298a40.951 40.951 0 0 1-8.85 13.648c-3.863 3.955-8.482 7.04-13.859 9.256-5.377 2.217-11.263 3.326-17.659 3.326-6.472 0-12.404-1.109-17.8-3.326-5.395-2.216-10-5.287-13.815-9.214-3.815-3.928-6.743-8.481-8.78-13.662-2.037-5.18-3.056-10.622-3.056-16.326zm8.276 0c0 4.769.814 9.309 2.44 13.62a35.646 35.646 0 0 0 7.125 11.585c3.124 3.413 6.858 6.083 11.207 8.009 4.348 1.926 9.148 2.89 14.405 2.89 5.254 0 10.066-.959 14.432-2.876 4.367-1.916 8.093-4.562 11.18-7.938 3.085-3.375 5.445-7.237 7.082-11.586 1.636-4.348 2.455-8.916 2.455-13.703 0-4.807-.819-9.384-2.455-13.731-1.637-4.348-3.992-8.201-7.069-11.558-3.077-3.356-6.809-5.993-11.193-7.911s-9.197-2.875-14.433-2.875c-5.256 0-10.066.968-14.433 2.904-4.367 1.936-8.097 4.591-11.192 7.967s-5.462 7.228-7.098 11.559c-1.635 4.326-2.453 8.876-2.453 13.644z" fill="#444445"/><path fill="#FFF" d="M282.709 347.389l26.054 20.83 12.779 7.166s10.297-2.957 10.815-3.811c.519-.855 13.521-15.355 14.437-16.189.915-.832 8.75-12.332 8.75-12.332s7.179-14.652 6.987-15.65 1.366-16.35 1.355-17.184 3.821-12.5 2.155-14-3.5-3.666-7.833-4.166-13.166.832-15.833 1.832-7.688 4.834-10.511 4.334-1.159-.166-7.074-4-5.511-3-7.963-5.666c-2.452-2.668-1.452-1.668-3.619-3.5-2.167-1.834-4.499-4.668-7.833-6.668s-5-3.166-6.667-3c-1.667.168-6.499-.998-11.333 1.334-4.834 2.334-11.334 7.666-11.834 9.166s-1.999-1.332-1.166 4.168c.794 5.244.68 8.973.668 13.498l-.002.668c0 4.834 3.334 20.334 3.334 20.334l1.715 2.85 2.619 19.986zm113.957-15.616l-43.334 3.487"/><path fill="#FFF" d="M356.57 331.773l2.023-6.461s12.412 11.588 12.116 12.613c-.296 1.027-5.241 51.334-5.241 51.334l-17.779-34.166 8.516-23.32"/><path fill="#C1B49A" d="M253.932 366.729s-2.82 1.086 1.082-1.082c3.902-2.174 8.676-4.773 15.827-11.713 7.158-6.934 8.673-9.537 12.359-20.596 3.687-11.057 1.834-20.59 1.834-20.59l-1.301-9.107c-1.896-7.949 2.851-17.34 9.106-23.416 4.931 3.303 8.146 8.338 13.009 11.707-2.873 4.061-7.923 5.943-7.804 13.01 13.375-17.473 32.513 4.152 50.733 5.207.988-5.949.377-13.494 6.507-14.312 11.618 3.406 3.536 17.039 5.205 24.719 2.312 10.678 11.967 15.764 20.816 19.51 2.53-29.021 4.147-68.309-9.107-85.855 4.621-12.568-3.255-22.352-11.709-26.02-5.934-1.174-7.377 2.172-11.712 2.601-1.78-12.241-15.417-5.923-20.814-5.203-6.521.858-14.352-.856-20.814 0-27.515 3.653-51.193 27.906-54.641 57.242-2.16 18.395 0 42.697 0 66.346 0 5.744-1.987 51.906 0 66.35 10.63 77.184 139.406 72.25 127.489-14.314-3.34-24.246-15.062-32.275-31.221-52.035l-2.093-2.096-25.473 22.379-16.748-11.57-9.718-8.475-5.414-6.08-2.317-3.4-2.299-5.205"/><path fill="none" stroke="#444" stroke-width="4" stroke-miterlimit="10" d="M253.93 367.467s-2.819 1.082 1.084-1.088c3.9-2.166 8.674-4.764 15.826-11.709 7.156-6.934 8.672-9.535 12.358-20.592 3.687-11.059 1.835-20.594 1.835-20.594l-1.301-9.109c-1.897-7.947 2.851-17.34 9.105-23.416 4.931 3.307 8.143 8.34 13.01 11.709-2.873 4.061-7.923 5.945-7.804 13.008 13.375-17.471 32.508 4.15 50.733 5.205.989-5.945.378-13.49 6.504-14.311 11.622 3.41 3.541 17.045 5.208 24.719 2.312 10.678 11.968 15.77 20.812 19.514 2.536-29.025 4.152-68.311-9.103-85.859 4.621-12.57-3.256-22.352-11.71-26.021-5.933-1.173-7.376 2.175-11.712 2.601-1.779-12.236-15.416-5.92-20.814-5.203-6.52.861-14.351-.859-20.813 0-27.52 3.657-51.194 27.903-54.641 57.241-2.161 18.396 0 42.695 0 66.35 0 5.746-1.987 51.904 0 66.35 10.63 77.184 139.406 72.252 127.489-14.312-3.34-24.248-15.068-32.277-31.222-52.037l-2.093-2.094"/><path fill="#FFF" stroke="#FFF" stroke-linecap="round" stroke-linejoin="round" d="M372.242 244.592c-2.85 1.48-5.318 3.357-10.406 2.6-1.118-4.152 2.043-4.023 2.604-6.506-3.305-2.329-6.352 1.441-9.105-2.604 2.794-13.48 19.068-8.702 16.907 6.51z"/><path fill="#444" d="M291.007 346.105c4.211 9.262 7.22 19.033 9.702 28.902 1.263 4.934 2.267 9.93 3.209 14.936.466 2.506.85 5.025 1.229 7.543.36 2.529.75 5.006.965 7.658.351 5.219 0 10.482-1.085 15.588-1.122 5.094-2.875 10.035-5.26 14.629-2.342 4.615-5.262 8.896-8.55 12.828-3.33 3.893-6.978 7.525-11.126 10.477 3.622-3.557 6.852-7.447 9.726-11.555a77.808 77.808 0 0 0 7.416-12.967c4.05-9.043 6.068-18.949 5.29-28.74-.165-2.398-.528-4.939-.855-7.426-.334-2.496-.73-4.98-1.103-7.475-.74-4.984-1.66-9.939-2.588-14.896-1.95-9.89-4.165-19.746-6.97-29.502z"/><path fill="#444" d="M284.722 331.773a288.242 288.242 0 0 1 1.878 6.355l-.043-.121c1.98 3.338 4.623 6.23 7.403 8.947 2.798 2.713 5.789 5.227 8.867 7.631 3.058 2.436 6.269 4.684 9.472 6.938 3.206 2.236 6.54 4.357 9.825 6.4l-1.933.078c3.169-2.225 6.285-4.619 9.398-6.965a297.146 297.146 0 0 0 9.143-7.316c2.969-2.527 5.914-5.088 8.633-7.869a52.035 52.035 0 0 0 3.875-4.35c1.177-1.537 2.292-3.154 2.95-5.021-.316 1.959-1.176 3.82-2.174 5.541-.994 1.74-2.18 3.354-3.401 4.928-2.484 3.119-5.213 6.025-8.078 8.77-2.848 2.768-5.835 5.375-8.886 7.9-3.039 2.551-6.181 4.928-9.407 7.283l-.922.672-1.013-.594c-3.487-2.047-6.75-4.303-10.018-6.611-3.265-2.299-6.382-4.809-9.431-7.4-3.022-2.625-5.932-5.404-8.572-8.439-2.626-3.035-5.06-6.33-6.655-10.07l-.039-.088-.005-.033a266.972 266.972 0 0 1-.867-6.566z"/><path fill="#444" d="M284.227 307.836c3.948 1.473 7.342 4.33 9.958 7.707 1.327 1.689 2.403 3.57 3.321 5.516.458.957.837 2.018 1.178 2.979a39.93 39.93 0 0 1 .918 3.102c.475 2.1.772 4.256.792 6.418.01 2.152-.261 4.33-.567 6.324-.062.492-.109.975-.088 1.375.017.191.042.371.091.488.028.057.047.115.083.16l.023.035.006.012-.029-.025.035.033.137.125c.153.139.635.363 1.069.449a9.13 9.13 0 0 0 1.44.205c2.005.154 4.09-.025 6.169-.215-1.975.711-4.017 1.213-6.173 1.393-.542.033-1.093.035-1.665-.025-.588-.08-1.13-.145-1.841-.592l-.165-.123-.04-.027c-.026-.025.032.031-.064-.057l-.026-.025-.104-.109a2.242 2.242 0 0 1-.347-.486c-.187-.35-.26-.688-.318-1.01-.091-.633-.074-1.193-.059-1.734.097-2.143.299-4.105.162-6.115a30.041 30.041 0 0 0-.854-5.92c-.225-.977-.5-1.949-.797-2.889a41.53 41.53 0 0 0-1.044-2.844c-.741-1.867-1.7-3.635-2.769-5.344-2.192-3.369-4.974-6.437-8.432-8.781z"/><path fill="#FFF" stroke="#FFF" stroke-linecap="round" stroke-linejoin="round" d="M335.821 262.801c2.677.768 5.409 2.498 2.601 5.203 3.175 3.303 2.77-2.746 7.808-1.297.778 3.117 1.872 5.926 1.301 10.406-6.263 4.564-15.496.975-18.211-5.205.163-5.035 5.277-5.129 6.501-9.107zm33.825-7.805c6.362 12.305-10.984 23.467-15.615 10.406 1.066-2.744 6.855-3.564 9.105-1.301 3.553-3.525-3.367-3.238-2.597-7.807 1.672-1.794 5.645-1.288 9.107-1.298zm-14.312-9.107c.86 7.365-.939 12.072-5.2 14.314-23.173 2.17-8.265-29.55 5.2-14.314zm-33.824-5.203c2.837 2.365 9.158 1.244 10.41 5.203.385 3.42-1.799 4.264-5.204 3.904-1.066 4.969 6.268 1.533 5.204 6.504-4.113.662-5.716 3.826-10.41 3.904-4.881-3.455-5.647-16.318 0-19.515zm27.319-14.311v9.107c-4.503 1.025-5.489-1.445-7.808-2.604-3.536-.938.939 6.141-2.6 5.203-3.146 2.772-5.748-2.9-7.807-5.203 1.222-7.376 12.037-11.789 18.215-6.503z"/><path opacity=".21" fill="#E5C0DB" d="M323.46 326.57s1.79-5.816 4.721-7.967c2.926-2.156 3.575-1.426 6.99-1.631 3.416-.201 3.404-.164 4.067.818.658.979 1.95-1.1 0 2.273-1.952 3.379-6.377 3.826-9.112 5.207-2.737 1.385-4.55 2.275-5.036 2.111-.49-.162-1.63-.811-1.63-.811z"/><path fill="#E5C0DB" d="M323.91 346.764c.846 5.617-2.25 7.295-3.9 10.408-6.104 1.326-7.406-2.15-10.407-3.906 3.59-3.344 7.204-6.674 14.307-6.502z"/><path fill="#C1B49A" d="M332.357 311.637c-6.658 4.359-12.108 16.264-24.713 10.406.416-3.057 2.054-4.877 1.299-9.104 1.938 1.104 1.888 4.186 2.601 6.504 9.577.248 12.204-11.162 20.813-7.806z"/></svg>