<svg version="1.1" id="Layer_1" xmlns="http://www.w3.org/2000/svg" x="0" y="0" width="320" height="140" viewBox="110 135 450 230" xml:space="preserve"><path fill="none" d="M-.848 85.884h640.347v218.314H-.848z"/><path d="M211.48 206.01v-51.066h4.97v23.707l22.835-23.707h6.127l-24.224 24.723 24.741 26.344h-6.644l-22.835-24.812v24.812h-4.97zm39.693 0v-51.066h14.161c3.847 0 7.362.866 10.544 2.601 3.183 1.733 4.774 5.367 4.774 10.9 0 5.593-1.594 9.251-4.783 10.973s-6.7 2.582-10.536 2.582h-9.191v24.011h-4.969zm4.97-46.988v18.898h8.969c6.952 0 10.428-3.159 10.428-9.477 0-3.848-1.088-6.379-3.265-7.597-2.177-1.217-4.565-1.825-7.163-1.825h-8.969zm26.707 46.988l22.906-52.527 22.834 52.527h-5.094l-7.089-16.637h-21.375l-7.071 16.637h-5.111zm13.928-20.715h17.883l-8.906-20.947-8.977 20.947zm79.681 10.509v5.682c-5.297 3.99-11.501 5.985-18.613 5.985-3.504 0-6.85-.627-10.037-1.88a25.408 25.408 0 0 1-8.471-5.45c-2.457-2.381-4.379-5.242-5.762-8.585s-2.074-7.039-2.074-11.088c0-3.586.625-7.015 1.879-10.286 1.252-3.271 3.045-6.166 5.379-8.684 2.333-2.518 5.127-4.482 8.381-5.896 3.253-1.413 6.821-2.12 10.705-2.12 3.324 0 6.5.445 9.529 1.336 3.027.891 6.056 2.488 9.084 4.791v5.771c-5.332-5.213-11.489-7.819-18.471-7.819-3.018 0-5.838.62-8.461 1.861-2.625 1.241-4.893 2.945-6.805 5.112s-3.385 4.625-4.417 7.374a24.136 24.136 0 0 0-1.55 8.559c0 4.405.968 8.351 2.903 11.836s4.53 6.204 7.784 8.157c3.253 1.954 6.744 2.931 10.473 2.931 3.289 0 6.534-.653 9.734-1.96 3.202-1.305 6.138-3.181 8.81-5.627zm.861 10.206l22.906-52.527 22.835 52.527h-5.095l-7.088-16.637h-21.375l-7.071 16.637h-5.112zm13.93-20.715h17.883l-8.906-20.947-8.977 20.947zM233.443 271.67v-25.025l-20.929 25.025h-6.644l22.834-26.112-21.517-24.954h6.127l20.127 23.992v-23.992h4.969v23.992l20.127-23.992h6.127l-21.517 24.954 22.834 26.112h-6.644l-20.929-25.025v25.025h-4.965zm43.913 0l7.071-15.461-18.613-35.605h5.628l15.461 30.423 13.786-30.423h5.041l-23.352 51.066h-5.022zm38.374-51.066h28.393v51.066h-4.97v-46.987H320.7v27.501c0 3.183-.169 5.94-.508 8.273-.338 2.334-.947 4.373-1.826 6.119-.879 1.745-2.141 3.104-3.785 4.078-1.645.975-3.737 1.461-6.278 1.461-.962 0-2.298-.148-4.008-.445v-4.062c1.458.238 2.377.356 2.757.356 2.513 0 4.407-.725 5.682-2.174 1.274-1.449 2.092-3.272 2.454-5.47.362-2.198.542-4.829.542-7.895v-31.821zm39.264 51.066v-51.066h27.359v4.079h-22.389v16.351h21.588v4.079h-21.588v22.479h22.389v4.079h-27.359zm35.899 0v-51.066h25.686v4.079h-20.715v16.85h8.389c11.721 0 17.58 4.987 17.58 14.962 0 4.239-1.041 7.481-3.125 9.726s-4.558 3.714-7.419 4.408c-2.862.694-5.913 1.042-9.155 1.042h-11.241zm4.97-4.079h7.07c1.947 0 3.931-.231 5.949-.695 2.02-.463 3.83-1.521 5.434-3.173 1.603-1.651 2.404-4.064 2.404-7.237 0-3.126-.736-5.493-2.209-7.104s-3.12-2.642-4.943-3.094a22.367 22.367 0 0 0-5.388-.677h-8.317v21.98zm33.778-46.987h4.971v40.415l34.875-42.464v53.115h-4.969v-40.415l-34.877 42.464v-53.115zm50.701 51.066v-51.066h4.969v20.929h29.391v-20.929h4.969v51.066h-4.969v-26.059h-29.391v26.059h-4.969zm47.867-25.542c0-3.634.645-7.09 1.934-10.367 1.287-3.277 3.146-6.165 5.574-8.665s5.35-4.45 8.764-5.852c3.414-1.4 7.188-2.102 11.32-2.102 4.096 0 7.842.701 11.238 2.102 3.396 1.401 6.324 3.357 8.781 5.869a25.798 25.798 0 0 1 5.619 8.657c1.289 3.259 1.934 6.712 1.934 10.357 0 3.634-.648 7.083-1.941 10.349a26.008 26.008 0 0 1-5.619 8.665c-2.453 2.512-5.387 4.471-8.801 5.878s-7.15 2.111-11.211 2.111c-4.109 0-7.877-.704-11.303-2.111s-6.35-3.357-8.771-5.851c-2.424-2.494-4.281-5.386-5.576-8.675s-1.942-6.743-1.942-10.365zm5.254 0c0 3.027.518 5.91 1.551 8.647s2.541 5.189 4.523 7.356c1.984 2.167 4.355 3.862 7.117 5.085 2.76 1.224 5.809 1.835 9.146 1.835 3.336 0 6.391-.608 9.164-1.826 2.771-1.217 5.139-2.896 7.098-5.04s3.457-4.596 4.498-7.356c1.037-2.761 1.559-5.661 1.559-8.701 0-3.052-.521-5.958-1.559-8.719-1.041-2.762-2.537-5.207-4.49-7.339s-4.322-3.806-7.105-5.023c-2.785-1.217-5.84-1.825-9.164-1.825-3.338 0-6.393.614-9.166 1.844-2.771 1.229-5.141 2.915-7.105 5.059-1.967 2.144-3.469 4.589-4.508 7.338s-1.559 5.637-1.559 8.665zm-454.194 21.84s-2.35.906.902-.901c3.251-1.811 7.229-3.978 13.189-9.76 5.965-5.779 7.227-7.947 10.299-17.164 3.072-9.214 1.529-17.159 1.529-17.159l-1.084-7.588c-1.581-6.625 2.375-14.451 7.588-19.514 4.109 2.752 6.788 6.948 10.841 9.755-2.394 3.384-6.602 4.954-6.503 10.843 11.146-14.562 27.094 3.459 42.278 4.338.823-4.957.314-11.244 5.422-11.926 9.682 2.838 2.947 14.199 4.338 20.598 1.926 8.899 9.972 13.137 17.347 16.259 2.108-24.185 3.456-56.925-7.59-71.547 3.851-10.474-2.712-18.627-9.757-21.683-4.945-.978-6.148 1.81-9.76 2.167-1.484-10.201-12.848-4.936-17.346-4.336-5.433.715-11.959-.713-17.345 0-22.929 3.045-42.661 23.255-45.534 47.701-1.8 15.33 0 35.581 0 55.289 0 4.787-1.656 43.256 0 55.291 8.858 64.32 116.172 60.208 106.241-11.928-2.783-20.206-12.552-26.896-26.017-43.363l-1.744-1.747-21.227 18.65-13.957-9.642-8.098-7.063-4.512-5.065-1.931-2.836-1.916-4.337" fill="#FFF"/><path fill="none" stroke="#454545" stroke-width="4" stroke-miterlimit="10" d="M79.267 268.583s-2.349.901.903-.905c3.251-1.806 7.229-3.971 13.189-9.758 5.964-5.777 7.227-7.947 10.299-17.16 3.072-9.216 1.529-17.161 1.529-17.161l-1.084-7.591c-1.581-6.623 2.375-14.45 7.588-19.514 4.109 2.755 6.785 6.95 10.841 9.758-2.394 3.383-6.602 4.954-6.503 10.84 11.146-14.559 27.09 3.458 42.278 4.337.824-4.955.315-11.242 5.42-11.926 9.685 2.842 2.951 14.205 4.34 20.6 1.927 8.898 9.973 13.141 17.344 16.261 2.113-24.188 3.46-56.925-7.586-71.55 3.851-10.475-2.713-18.627-9.758-21.684-4.944-.977-6.147 1.812-9.76 2.167-1.483-10.197-12.847-4.933-17.345-4.336-5.433.718-11.959-.716-17.345 0-22.933 3.048-42.662 23.253-45.534 47.701-1.801 15.33 0 35.58 0 55.291 0 4.788-1.656 43.254 0 55.292 8.858 64.32 116.172 60.21 106.241-11.929-2.783-20.205-12.557-26.896-26.018-43.363l-1.744-1.744"/><path fill="#FFF" stroke="#FFF" stroke-linecap="round" stroke-linejoin="round" d="M177.861 166.187c-2.375 1.234-4.432 2.798-8.672 2.167-.932-3.46 1.703-3.352 2.17-5.422-2.754-1.94-5.293 1.201-7.588-2.169 2.329-11.233 15.891-7.251 14.09 5.424z"/><path fill="#454545" d="M110.165 250.783c3.509 7.717 6.016 15.861 8.085 24.085 1.052 4.11 1.889 8.274 2.674 12.446.388 2.088.708 4.188 1.024 6.285.3 2.108.625 4.172.804 6.383.292 4.349 0 8.734-.904 12.988-.935 4.245-2.396 8.363-4.383 12.191-1.952 3.847-4.385 7.415-7.125 10.691-2.775 3.242-5.815 6.271-9.272 8.729 3.019-2.963 5.71-6.206 8.105-9.629a64.887 64.887 0 0 0 6.18-10.806c3.375-7.536 5.057-15.791 4.408-23.949-.137-2-.44-4.117-.713-6.189-.278-2.08-.608-4.15-.918-6.229-.617-4.153-1.384-8.282-2.157-12.413-1.624-8.24-3.471-16.454-5.808-24.583z"/><path fill="#454545" d="M104.927 238.84a233.677 233.677 0 0 1 1.565 5.296l-.036-.102c1.651 2.782 3.853 5.192 6.17 7.456 2.331 2.261 4.824 4.355 7.389 6.359 2.548 2.029 5.224 3.902 7.893 5.781 2.672 1.864 5.45 3.631 8.188 5.334l-1.611.064c2.641-1.854 5.238-3.848 7.832-5.803a246.139 246.139 0 0 0 7.619-6.099c2.474-2.104 4.929-4.239 7.194-6.558a42.857 42.857 0 0 0 3.229-3.625c.981-1.279 1.91-2.627 2.459-4.184-.264 1.633-.98 3.184-1.812 4.618-.828 1.449-1.816 2.794-2.834 4.106-2.07 2.599-4.344 5.021-6.732 7.308-2.373 2.306-4.862 4.479-7.405 6.583-2.532 2.126-5.15 4.105-7.839 6.068l-.768.561-.844-.494c-2.906-1.705-5.625-3.586-8.348-5.509-2.721-1.917-5.318-4.008-7.859-6.168-2.519-2.188-4.943-4.504-7.144-7.033-2.188-2.528-4.216-5.274-5.546-8.391l-.032-.073-.004-.029a220.391 220.391 0 0 1-.724-5.466z"/><path fill="#FFF" d="M104.515 218.892c3.29 1.226 6.118 3.608 8.298 6.422 1.106 1.408 2.003 2.975 2.768 4.596.381.798.697 1.682.981 2.482.29.86.548 1.715.765 2.585.396 1.749.644 3.546.66 5.348.008 1.794-.217 3.608-.473 5.271-.052.409-.091.812-.073 1.146.014.158.035.309.076.406.023.047.039.097.069.133l.019.029.005.01-.024-.021.029.028.114.104c.128.115.529.303.891.373.378.092.787.141 1.201.172 1.67.129 3.408-.021 5.14-.179-1.645.593-3.347 1.011-5.144 1.16-.451.028-.91.028-1.387-.021-.49-.066-.942-.121-1.534-.494l-.138-.102-.033-.023c-.022-.021.027.027-.054-.047l-.022-.021-.087-.091c-.122-.119-.208-.267-.289-.406-.155-.291-.216-.573-.265-.841-.076-.527-.062-.994-.049-1.445.081-1.785.249-3.422.135-5.096a25.061 25.061 0 0 0-.711-4.934 31.715 31.715 0 0 0-.664-2.407 34.78 34.78 0 0 0-.87-2.37c-.618-1.555-1.417-3.029-2.307-4.452-1.827-2.806-4.146-5.363-7.027-7.315z"/><path fill="#FFF" stroke="#FFF" stroke-linecap="round" stroke-linejoin="round" d="M147.51 181.362c2.231.639 4.508 2.082 2.167 4.336 2.646 2.752 2.308-2.288 6.507-1.081.648 2.597 1.56 4.938 1.084 8.672-5.219 3.804-12.914.812-15.176-4.338.137-4.196 4.398-4.273 5.418-7.589zm28.188-6.504c5.302 10.254-9.154 19.556-13.013 8.672.889-2.287 5.713-2.971 7.588-1.084 2.961-2.938-2.806-2.699-2.164-6.506 1.393-1.496 4.703-1.074 7.589-1.082zm-11.927-7.589c.717 6.137-.783 10.06-4.334 11.928-19.31 1.808-6.887-24.625 4.334-11.928zm-28.187-4.337c2.364 1.971 7.632 1.038 8.675 4.336.321 2.851-1.499 3.553-4.337 3.254-.888 4.141 5.223 1.278 4.337 5.42-3.428.552-4.763 3.188-8.675 3.254-4.067-2.879-4.705-13.599 0-16.264zm22.766-11.925v7.589c-3.752.855-4.574-1.204-6.506-2.169-2.947-.781.783 5.117-2.167 4.336-2.622 2.31-4.79-2.417-6.505-4.336 1.017-6.147 10.03-9.824 15.178-5.42z"/><path opacity=".21" fill="#E4C0DB" d="M137.209 234.503s1.492-4.846 3.934-6.639c2.438-1.797 2.979-1.188 5.825-1.358 2.847-.168 2.837-.138 3.39.681.548.815 1.625-.916 0 1.895-1.627 2.816-5.314 3.188-7.594 4.339-2.281 1.154-3.791 1.896-4.197 1.759-.408-.136-1.358-.677-1.358-.677z"/><path fill="#E4C0DB" d="M137.584 251.331c.705 4.681-1.875 6.079-3.25 8.673-5.086 1.105-6.172-1.792-8.673-3.255 2.993-2.786 6.004-5.561 11.923-5.418z"/><path fill="#FFF" d="M144.624 222.058c-5.549 3.633-10.091 13.553-20.594 8.672.346-2.547 1.711-4.063 1.082-7.586 1.615.92 1.573 3.488 2.167 5.42 7.981.207 10.17-9.302 17.345-6.506z"/></svg>