<svg version="1.1" id="Layer_1" xmlns="http://www.w3.org/2000/svg" x="0" y="0" width="640" height="480" viewBox="130 40 400 400" xml:space="preserve"><path fill="none" d="M-.348 43.384h640.347v218.314H-.348z"/><path d="M189.068 113.666V46.644h6.522v31.115l29.969-31.115h8.042l-31.793 32.447 32.471 34.575h-8.72L195.59 81.102v32.564h-6.522zm50.753 0V46.644h18.585c5.049 0 9.663 1.138 13.839 3.413s6.265 7.045 6.265 14.307c0 7.341-2.092 12.142-6.277 14.4-4.185 2.26-8.794 3.39-13.828 3.39h-12.062v31.513h-6.522zm6.523-61.669V76.8h11.771c9.125 0 13.687-4.145 13.687-12.437 0-5.049-1.428-8.372-4.286-9.97-2.857-1.598-5.991-2.396-9.401-2.396h-11.771zm33.711 61.669l30.063-68.939 29.97 68.939h-6.687l-9.304-21.834h-28.053l-9.281 21.834h-6.708zm18.281-27.187h23.471l-11.689-27.491-11.782 27.491zm103.234 13.792v7.458c-6.951 5.236-15.094 7.854-24.429 7.854-4.598 0-8.989-.822-13.173-2.467a33.332 33.332 0 0 1-11.116-7.153c-3.226-3.124-5.747-6.88-7.562-11.268-1.815-4.387-2.724-9.237-2.724-14.552 0-4.707.822-9.207 2.467-13.501 1.645-4.293 3.997-8.092 7.06-11.396 3.062-3.304 6.729-5.883 10.999-7.737 4.27-1.854 8.953-2.782 14.05-2.782 4.363 0 8.532.585 12.507 1.754s7.948 3.265 11.922 6.288v7.574c-6.998-6.842-15.078-10.263-24.242-10.263-3.959 0-7.66.814-11.104 2.443a27.393 27.393 0 0 0-8.93 6.709 30.978 30.978 0 0 0-5.799 9.678 31.695 31.695 0 0 0-2.033 11.233c0 5.782 1.27 10.96 3.811 15.534 2.54 4.574 5.945 8.143 10.216 10.706 4.271 2.564 8.853 3.846 13.745 3.846 4.317 0 8.576-.856 12.776-2.571 4.2-1.714 8.053-4.177 11.559-7.387zm-.209 13.395l30.062-68.939 29.971 68.939h-6.687l-9.304-21.834H417.35l-9.281 21.834h-6.708zm18.282-27.187h23.471l-11.689-27.491-11.782 27.491zM113.845 199.843v-32.845l-27.468 32.845h-8.72l29.97-34.271-28.24-32.752h8.042l26.416 31.489V132.82h6.522v31.489l26.416-31.489h8.042l-28.239 32.752 29.969 34.271h-8.72l-27.468-32.845v32.845h-6.522zm56.294 0l9.281-20.291-24.43-46.732h7.387l20.292 39.929 18.094-39.929h6.616l-30.647 67.022h-6.593zm49.023-67.023h37.263v67.022h-6.522v-61.669h-24.218v36.095c0 4.177-.222 7.796-.667 10.858s-1.243 5.739-2.396 8.03c-1.154 2.291-2.81 4.075-4.968 5.354-2.159 1.277-4.906 1.916-8.24 1.916-1.263 0-3.016-.194-5.26-.584v-5.33c1.914.312 3.12.468 3.618.468 3.298 0 5.784-.951 7.457-2.854 1.673-1.901 2.747-4.295 3.221-7.179.475-2.885.712-6.338.712-10.36V132.82zm50.192 67.023V132.82h35.908v5.354h-29.385v21.46h28.333v5.354h-28.333v29.502h29.385v5.354h-35.908zm45.774 0V132.82h33.71v5.354H321.65v22.115h11.011c15.382 0 23.073 6.545 23.073 19.637 0 5.563-1.367 9.818-4.104 12.764-2.734 2.945-5.98 4.874-9.736 5.786-3.756.911-7.761 1.367-12.016 1.367h-14.75zm6.522-5.354h9.281c2.555 0 5.158-.304 7.808-.912s5.026-1.996 7.13-4.165c2.104-2.167 3.156-5.334 3.156-9.498 0-4.103-.967-7.21-2.898-9.324-1.934-2.113-4.096-3.466-6.488-4.059s-4.749-.89-7.071-.89H321.65v28.848zm42.993-61.669h6.521v53.043l45.772-55.731v69.711h-6.521V146.8l-45.772 55.731V132.82zm65.2 67.023V132.82h6.521v27.469h38.572V132.82h6.522v67.022h-6.522v-34.201h-38.572v34.201h-6.521zm61.483-33.523c0-4.77.845-9.305 2.536-13.605 1.691-4.302 4.13-8.093 7.317-11.373 3.187-3.28 7.021-5.841 11.501-7.68s9.433-2.759 14.856-2.759c5.377 0 10.294.92 14.751 2.759s8.299 4.406 11.525 7.703a33.902 33.902 0 0 1 7.375 11.361c1.69 4.277 2.536 8.81 2.536 13.594 0 4.769-.85 9.296-2.548 13.582a34.129 34.129 0 0 1-7.375 11.373c-3.219 3.296-7.068 5.867-11.549 7.714s-9.386 2.771-14.716 2.771c-5.393 0-10.337-.924-14.833-2.771s-8.334-4.406-11.513-7.679c-3.18-3.273-5.619-7.068-7.317-11.385-1.697-4.317-2.546-8.852-2.546-13.605zm6.897 0c0 3.974.678 7.757 2.033 11.35a29.71 29.71 0 0 0 5.938 9.654c2.603 2.845 5.715 5.069 9.339 6.674 3.623 1.605 7.624 2.408 12.004 2.408 4.379 0 8.389-.799 12.027-2.396 3.639-1.597 6.744-3.802 9.316-6.615 2.571-2.813 4.538-6.031 5.902-9.655 1.363-3.623 2.046-7.43 2.046-11.419 0-4.006-.683-7.82-2.046-11.443-1.364-3.623-3.327-6.834-5.891-9.632-2.564-2.797-5.674-4.994-9.328-6.592s-7.664-2.396-12.027-2.396c-4.38 0-8.389.807-12.027 2.42-3.64 1.613-6.748 3.826-9.327 6.639a29.57 29.57 0 0 0-5.915 9.632c-1.363 3.606-2.044 7.397-2.044 11.371z" fill="#444445"/><path fill="#C1B49A" d="M264.769 341.258s-2.35.906.902-.901c3.251-1.811 7.229-3.978 13.189-9.761 5.965-5.778 7.227-7.947 10.299-17.163 3.072-9.214 1.529-17.159 1.529-17.159l-1.084-7.588c-1.581-6.625 2.375-14.451 7.588-19.514 4.109 2.752 6.788 6.948 10.841 9.755-2.394 3.384-6.602 4.954-6.503 10.843 11.146-14.562 27.094 3.459 42.278 4.338.823-4.957.314-11.244 5.422-11.926 9.682 2.838 2.947 14.199 4.338 20.598 1.926 8.899 9.972 13.137 17.347 16.259 2.108-24.185 3.456-56.925-7.59-71.547 3.851-10.474-2.712-18.627-9.757-21.683-4.945-.978-6.148 1.81-9.76 2.167-1.484-10.201-12.848-4.936-17.346-4.336-5.433.715-11.959-.713-17.345 0-22.929 3.045-42.661 23.255-45.534 47.701-1.8 15.33 0 35.581 0 55.289 0 4.787-1.656 43.255 0 55.291 8.858 64.32 116.172 60.208 106.241-11.928-2.783-20.206-12.552-26.897-26.017-43.363l-1.744-1.747-21.227 18.65-13.957-9.642-8.098-7.063-4.512-5.066-1.931-2.835-1.916-4.337"/><path fill="none" stroke="#444" stroke-width="4" stroke-miterlimit="10" d="M264.767 341.873s-2.349.902.903-.905c3.251-1.806 7.229-3.971 13.189-9.758 5.964-5.778 7.227-7.947 10.299-17.16 3.072-9.216 1.529-17.161 1.529-17.161l-1.084-7.591c-1.581-6.623 2.375-14.45 7.588-19.514 4.109 2.755 6.785 6.95 10.841 9.758-2.394 3.383-6.602 4.954-6.503 10.84 11.146-14.559 27.09 3.458 42.278 4.337.824-4.955.315-11.242 5.42-11.926 9.685 2.842 2.951 14.205 4.34 20.6 1.927 8.898 9.973 13.141 17.344 16.261 2.113-24.188 3.46-56.925-7.586-71.55 3.851-10.475-2.713-18.627-9.758-21.684-4.944-.977-6.147 1.812-9.76 2.167-1.483-10.197-12.847-4.933-17.345-4.336-5.433.718-11.959-.716-17.345 0-22.933 3.048-42.662 23.253-45.534 47.701-1.801 15.33 0 35.58 0 55.291 0 4.788-1.656 43.254 0 55.292 8.858 64.32 116.172 60.21 106.241-11.928-2.783-20.206-12.557-26.897-26.018-43.364l-1.744-1.744"/><path fill="#FFF" stroke="#FFF" stroke-linecap="round" stroke-linejoin="round" d="M363.361 239.477c-2.375 1.234-4.432 2.798-8.672 2.167-.932-3.46 1.703-3.352 2.17-5.422-2.754-1.94-5.293 1.201-7.588-2.169 2.329-11.233 15.891-7.251 14.09 5.424z"/><path fill="#444" d="M295.665 324.073c3.509 7.717 6.016 15.861 8.085 24.085 1.052 4.111 1.889 8.274 2.674 12.447.388 2.088.708 4.187 1.024 6.285.3 2.108.625 4.171.804 6.382.292 4.349 0 8.735-.904 12.989-.935 4.245-2.396 8.363-4.383 12.191-1.952 3.847-4.385 7.415-7.125 10.691-2.775 3.243-5.815 6.271-9.272 8.73 3.019-2.963 5.71-6.206 8.105-9.629a64.887 64.887 0 0 0 6.18-10.806c3.375-7.536 5.057-15.791 4.408-23.949-.137-2-.44-4.117-.713-6.189-.278-2.08-.608-4.151-.918-6.229-.617-4.153-1.384-8.282-2.157-12.413-1.624-8.242-3.471-16.456-5.808-24.585z"/><path fill="#444" d="M290.427 312.13a232.165 232.165 0 0 1 1.565 5.296l-.036-.102c1.651 2.782 3.853 5.193 6.17 7.456 2.331 2.261 4.824 4.356 7.389 6.359 2.548 2.03 5.224 3.903 7.893 5.782 2.672 1.864 5.45 3.631 8.188 5.334l-1.611.064c2.641-1.853 5.238-3.848 7.832-5.803a246.108 246.108 0 0 0 7.619-6.098c2.474-2.105 4.929-4.24 7.194-6.557a43.17 43.17 0 0 0 3.229-3.625c.981-1.28 1.91-2.628 2.459-4.184-.264 1.633-.98 3.184-1.812 4.618-.828 1.449-1.816 2.794-2.834 4.106-2.07 2.599-4.344 5.021-6.732 7.308-2.373 2.306-4.862 4.479-7.405 6.583-2.532 2.126-5.15 4.106-7.839 6.069l-.768.56-.844-.494c-2.906-1.706-5.625-3.586-8.348-5.509-2.721-1.917-5.318-4.008-7.859-6.168-2.519-2.188-4.943-4.504-7.144-7.033-2.188-2.529-4.216-5.274-5.546-8.391l-.032-.073-.004-.029a222.539 222.539 0 0 1-.724-5.469z"/><path fill="#444" d="M290.015 292.182c3.29 1.226 6.118 3.608 8.298 6.422 1.106 1.408 2.003 2.975 2.768 4.596.381.798.697 1.682.981 2.482.29.86.548 1.715.765 2.585.396 1.749.644 3.546.66 5.348.008 1.794-.217 3.608-.473 5.27-.052.41-.091.812-.073 1.147.014.159.035.309.076.406.023.047.039.097.069.133l.019.03.005.009-.024-.021.029.028.114.104c.128.116.529.303.891.374.378.092.787.14 1.201.172 1.67.129 3.408-.021 5.14-.179-1.645.592-3.347 1.011-5.144 1.16-.451.028-.91.029-1.387-.021-.49-.066-.942-.121-1.534-.494l-.138-.101-.033-.023c-.022-.021.027.026-.054-.047l-.022-.022-.087-.091c-.122-.119-.208-.267-.289-.406-.155-.291-.216-.573-.265-.841-.076-.527-.062-.994-.049-1.445.081-1.785.249-3.422.135-5.096a25.061 25.061 0 0 0-.711-4.934 31.715 31.715 0 0 0-.664-2.407 34.78 34.78 0 0 0-.87-2.37c-.618-1.555-1.417-3.029-2.307-4.452-1.827-2.807-4.146-5.364-7.027-7.316z"/><path fill="#FFF" stroke="#FFF" stroke-linecap="round" stroke-linejoin="round" d="M333.01 254.652c2.231.639 4.508 2.082 2.167 4.336 2.646 2.752 2.308-2.288 6.507-1.081.648 2.597 1.56 4.938 1.084 8.672-5.219 3.804-12.914.812-15.176-4.338.137-4.196 4.398-4.273 5.418-7.589zm28.188-6.504c5.302 10.254-9.154 19.556-13.013 8.672.889-2.287 5.713-2.971 7.588-1.084 2.961-2.938-2.806-2.699-2.164-6.506 1.393-1.496 4.703-1.074 7.589-1.082zm-11.927-7.589c.717 6.137-.783 10.06-4.334 11.928-19.31 1.808-6.887-24.625 4.334-11.928zm-28.187-4.337c2.364 1.971 7.632 1.038 8.675 4.336.321 2.851-1.499 3.553-4.337 3.254-.888 4.141 5.223 1.278 4.337 5.42-3.428.552-4.763 3.188-8.675 3.254-4.067-2.879-4.705-13.599 0-16.264zm22.766-11.925v7.589c-3.752.855-4.574-1.204-6.506-2.169-2.947-.781.783 5.117-2.167 4.336-2.622 2.31-4.79-2.417-6.505-4.336 1.017-6.147 10.03-9.824 15.178-5.42z"/><path opacity=".21" fill="#E5C0DB" d="M322.709 307.793s1.492-4.846 3.934-6.639c2.438-1.797 2.979-1.188 5.825-1.358 2.847-.168 2.837-.138 3.39.681.548.815 1.625-.916 0 1.895-1.627 2.816-5.314 3.188-7.594 4.339-2.281 1.154-3.791 1.896-4.197 1.759-.408-.136-1.358-.677-1.358-.677z"/><path fill="#E5C0DB" d="M323.084 324.621c.705 4.681-1.875 6.079-3.25 8.673-5.086 1.105-6.172-1.792-8.673-3.255 2.993-2.786 6.004-5.561 11.923-5.418z"/><path fill="#C1B49A" d="M330.124 295.348c-5.549 3.633-10.091 13.553-20.594 8.672.346-2.547 1.711-4.063 1.082-7.586 1.615.92 1.573 3.488 2.167 5.42 7.981.207 10.17-9.302 17.345-6.506z"/></svg>