<?xml version="1.0" standalone="no"?>
<!DOCTYPE svg PUBLIC "-//W3C//DTD SVG 20010904//EN"
 "http://www.w3.org/TR/2001/REC-SVG-20010904/DTD/svg10.dtd">
<svg version="1.0" xmlns="http://www.w3.org/2000/svg"
 width="1000.000000pt" height="1000.000000pt" viewBox="0 0 1000.000000 1000.000000"
 preserveAspectRatio="xMidYMid meet">
<metadata>
Created by potrace 1.11, written by Peter Selinger 2001-2013
</metadata>
<g transform="translate(0.000000,1000.000000) scale(0.100000,-0.100000)"
fill="#000000" stroke="none">
<path d="M5665 9679 c-27 -5 -108 -24 -180 -42 l-130 -32 -220 5 c-413 9 -520
5 -644 -19 -724 -142 -1355 -635 -1702 -1331 -237 -477 -296 -901 -270 -1940
30 -1149 31 -1228 21 -1530 -17 -504 -24 -1742 -11 -1935 44 -673 277 -1185
731 -1609 370 -347 884 -574 1465 -647 147 -19 512 -16 670 5 449 59 860 223
1190 475 90 68 269 246 340 336 234 299 367 625 426 1045 19 129 16 510 -5
660 -49 361 -135 632 -281 885 -121 210 -233 353 -615 790 -53 61 -147 170
-208 242 l-112 133 55 79 c52 74 105 176 120 231 4 14 -10 -2 -30 -35 -125
-205 -452 -506 -967 -892 -99 -73 -183 -133 -187 -133 -14 0 -243 150 -408
267 -493 351 -802 655 -863 849 l-19 62 25 88 c68 249 74 488 20 850 -40 271
-43 334 -20 436 30 132 90 252 191 386 l56 73 26 -23 c14 -12 90 -85 168 -162
l142 -140 -68 -71 c-139 -143 -165 -211 -176 -457 -4 -93 -5 -168 -2 -168 3 0
55 60 116 133 152 183 221 232 361 257 155 28 297 -11 730 -202 349 -154 526
-210 712 -224 l85 -7 17 134 c35 275 51 329 107 372 26 18 28 18 63 2 47 -22
92 -75 105 -122 17 -59 13 -173 -11 -321 -30 -191 -30 -335 0 -432 71 -226
227 -404 489 -557 96 -56 401 -199 408 -191 4 4 40 467 57 728 19 289 16 1025
-5 1250 -52 557 -160 958 -329 1222 l-30 47 18 78 c25 112 24 266 -4 366 -25
87 -77 199 -122 261 -83 114 -231 235 -355 292 -53 24 -65 26 -159 22 -90 -4
-110 -9 -179 -41 l-77 -36 -29 57 c-37 73 -91 124 -166 158 -52 24 -75 28
-170 30 -60 2 -132 -2 -160 -7z m215 -170 c92 -20 132 -70 156 -197 8 -41 15
-77 17 -78 7 -7 159 30 210 52 177 75 215 80 302 34 182 -96 324 -281 356
-465 16 -91 6 -213 -24 -307 l-24 -76 45 -64 c55 -77 151 -275 186 -383 78
-242 131 -558 156 -925 13 -194 13 -787 -1 -1046 -14 -270 -34 -532 -42 -540
-8 -8 -162 76 -257 139 -92 62 -204 174 -248 249 -84 142 -97 247 -61 485 28
182 30 349 5 423 -37 107 -98 175 -202 226 -71 34 -120 35 -190 5 -123 -53
-186 -177 -210 -413 -8 -79 -4 -77 -115 -49 -108 28 -244 80 -499 193 -358
158 -523 208 -690 208 -74 0 -154 -11 -194 -26 -10 -4 11 28 48 72 98 116 97
103 8 170 -42 32 -144 125 -227 206 -82 81 -183 172 -224 203 l-75 55 -34 -32
c-61 -58 -177 -202 -225 -280 -91 -145 -148 -307 -162 -458 -5 -61 1 -129 35
-365 38 -266 41 -302 37 -435 -7 -185 -33 -316 -103 -523 -58 -167 -119 -302
-172 -378 -84 -123 -299 -334 -477 -469 -87 -66 -249 -170 -266 -170 -5 0 -6
146 -2 324 4 199 1 525 -8 847 -20 737 -18 1437 5 1639 37 335 104 567 243
842 312 618 872 1063 1524 1210 100 22 121 23 514 23 l410 0 130 33 c197 51
264 58 345 41z m-1992 -4156 c79 -133 165 -238 326 -399 224 -223 542 -470
828 -643 l86 -53 104 78 c258 195 486 391 665 572 l121 123 114 -134 c62 -74
195 -229 295 -344 334 -384 430 -516 543 -748 101 -205 153 -382 197 -665 25
-164 25 -581 0 -731 -79 -466 -280 -840 -604 -1120 -306 -264 -692 -436 -1133
-504 -163 -26 -504 -31 -680 -11 -563 65 -1078 302 -1435 661 -352 354 -553
799 -607 1345 -14 143 -18 1478 -5 1532 5 20 28 38 100 79 192 110 314 199
496 363 265 240 382 409 482 698 l34 97 15 -63 c9 -34 35 -94 58 -133z"/>
</g>
</svg>
